# Blender 4.0.2
# www.blender.org
mtllib door1.mtl
o Cube
v -0.176708 0.239737 0.097456
v -0.176708 0.239737 -0.097456
v -0.635028 0.239737 -0.097456
v -0.635028 0.239737 0.097456
v -0.635028 1.533530 0.097456
v -0.635028 1.533530 -0.097456
v -0.865414 2.763337 0.097456
v -0.865414 2.763337 -0.097456
v -0.063271 1.646718 0.086366
v -0.211871 1.494187 0.097456
v -0.211871 1.494187 -0.097456
v -0.063271 1.646718 -0.086366
v 0.336729 0.054927 0.086366
v 0.325639 0.054927 0.097456
v 0.325639 1.125409 0.097456
v 0.336729 1.129195 0.086366
v 0.325639 0.054927 -0.097456
v 0.336729 0.054927 -0.086366
v 0.336729 1.129195 -0.086366
v 0.325639 1.125409 -0.097456
v -0.074361 2.763337 0.097456
v -0.063271 2.763337 0.086366
v -0.063271 2.763337 -0.086366
v -0.074361 2.763337 -0.097456
v -0.865414 0.054927 0.097456
v -0.865414 1.646718 0.097456
v -0.865414 1.646718 -0.097456
v -0.865414 0.054927 -0.097456
v -0.063271 0.054927 0.097456
v -0.063271 0.054927 -0.097456
v -0.074361 1.642932 0.097456
v -0.074361 1.642932 -0.097456
v 0.101814 0.239737 0.097456
v 0.101814 0.239737 -0.097456
v 0.101814 1.117081 0.097456
v 0.101814 1.117081 -0.097456
v -0.211871 2.440456 0.097456
v -0.211871 2.440456 -0.097456
v -0.635028 2.304840 0.097456
v -0.499412 2.440456 0.097456
v -0.713798 2.550850 0.097456
v -0.499412 2.440456 -0.097456
v -0.635028 2.304840 -0.097456
v -0.713798 2.550850 -0.097456
v -0.722751 0.162199 0.038786
v -0.722751 1.096092 0.038786
v -0.722751 0.162199 -0.038786
v -0.722751 1.096092 -0.038786
v 0.148488 0.162199 0.038786
v 0.148488 1.096092 0.038786
v 0.148488 0.162199 -0.038786
v 0.148488 1.096092 -0.038786
v -0.722751 1.549159 0.038786
v -0.722751 1.549159 -0.038786
v -0.149829 1.549159 -0.038786
v -0.149829 1.549159 0.038786
v -0.722751 2.488491 0.038786
v -0.722751 2.488491 -0.038786
v -0.149829 2.488491 -0.038786
v -0.149829 2.488491 0.038786
vn -0.0000 1.0000 -0.0000
vn 1.0000 -0.0000 -0.0000
vn -1.0000 -0.0000 -0.0000
vn -0.0000 -1.0000 -0.0000
vn 0.7912 0.6115 -0.0000
vn 0.5595 0.4324 -0.7071
vn 0.7071 -0.0000 -0.7071
vn 0.7071 -0.0000 0.7071
vn 0.5595 0.4324 0.7071
vn -0.0000 -0.0000 1.0000
vn -0.0000 -0.0000 -1.0000
vn -0.7688 -0.6395 -0.0000
vn 0.7071 -0.7071 -0.0000
vn 0.8352 0.5499 -0.0000
vt 0.875000 0.750000
vt 0.875000 0.735776
vt 0.875000 0.514224
vt 0.875000 0.500000
vt 0.375000 0.514224
vt 0.625000 0.514224
vt 0.625000 0.735776
vt 0.375000 0.735776
vt 0.375000 0.000000
vt 0.625000 0.000000
vt 0.625000 0.250000
vt 0.375000 0.250000
vt 0.125000 0.500000
vt 0.125000 0.750000
vt 0.625000 0.514224
vt 0.625000 0.735776
vt 0.368069 0.500000
vt 0.368069 0.750000
vt 0.625000 0.500000
vt 0.621664 0.493069
vt 0.622442 0.243069
vt 0.375000 0.493069
vt 0.621664 0.756931
vt 0.375000 0.756931
vt 0.625000 0.750000
vt 0.625000 1.000000
vt 0.622442 1.006931
vt 0.625000 1.000000
vt 0.625000 0.250000
vt 0.392692 1.000000
vt 0.607223 1.000000
vt 0.375000 1.000000
vt 0.607223 0.250000
vt 0.392692 0.250000
vt 0.392692 1.000000
vt 0.392692 0.250000
vt 0.000000 0.000000
vt 0.610140 1.000000
vt 0.613301 0.658095
vt 0.613301 0.250000
vt 0.610140 0.250000
vt 0.412617 0.169878
vt 0.412616 0.679514
vt 0.610140 0.250000
vt 0.375000 0.500000
vt 0.375000 0.750000
s 0
usemtl Material
f 21/1/1 22/2/1 23/3/1 24/4/1 8/4/1 7/1/1
f 9/2/2 12/3/2 23/3/2 22/2/2
f 18/5/2 19/6/2 16/7/2 13/8/2
f 25/9/3 26/10/3 27/11/3 28/12/3
f 30/13/4 29/14/4 25/14/4 28/13/4
f 19/15/5 12/3/5 9/2/5 16/16/5
f 30/13/4 17/17/4 18/5/4 13/8/4 14/18/4 29/14/4
f 27/11/3 26/10/3 7/10/3 8/11/3
f 12/11/6 19/19/6 20/20/6 32/21/6
f 19/6/7 18/5/7 17/22/7 20/20/7
f 15/23/8 14/24/8 13/8/8 16/7/8
f 16/25/9 9/26/9 31/27/9 15/23/9
f 9/26/8 22/26/8 21/26/8 31/28/8
f 32/29/7 24/11/7 23/11/7 12/11/7
f 4/30/10 5/31/10 26/26/10 25/32/10
f 6/33/11 3/34/11 28/12/11 27/11/11
f 1/35/10 4/30/10 25/32/10 29/32/10
f 3/34/11 2/36/11 30/12/11 28/12/11
f 35/37/3 36/37/3 34/37/3 33/37/3
f 34/37/1 2/37/1 1/37/1 33/37/1
f 1/35/10 29/32/10 33/37/10
f 34/37/11 30/12/11 2/36/11
f 29/32/10 14/18/10 33/37/10
f 30/12/11 34/37/11 17/17/11
f 20/20/11 17/17/11 34/37/11
f 34/37/11 36/37/11 20/20/11
f 14/18/10 15/23/10 33/37/10
f 33/37/10 15/23/10 35/37/10
f 1/37/1 2/37/1 3/34/1 4/30/1
f 4/30/2 3/34/2 6/33/2 5/31/2
f 5/31/10 39/38/10 26/26/10
f 15/23/10 31/27/10 10/37/10 35/37/10
f 35/37/12 10/37/12 11/37/12 36/37/12
f 20/20/11 36/37/11 11/37/11 32/21/11
f 11/37/11 38/37/11 32/21/11
f 24/11/11 32/21/11 38/37/11
f 10/37/10 31/27/10 37/37/10
f 31/27/10 21/26/10 37/37/10
f 37/37/3 38/37/3 11/37/3 10/37/3
f 5/31/2 6/33/2 43/33/2 39/31/2
f 26/26/10 39/38/10 41/39/10 7/10/10
f 8/11/11 44/40/11 43/41/11 27/11/11
f 8/11/11 24/11/11 38/37/11 42/42/11 44/40/11
f 40/43/4 42/42/4 38/37/4 37/37/4
f 6/33/11 27/11/11 43/33/11
f 39/31/10 40/31/10 41/39/10
f 42/42/11 43/44/11 44/40/11
f 39/31/13 43/33/13 42/42/13 40/43/13
f 7/10/10 41/39/10 40/43/10 37/37/10 21/26/10
usemtl Material2
f 45/9/3 46/10/3 48/11/3 47/12/3
f 47/12/11 48/11/11 52/19/11 51/45/11
f 51/45/2 52/19/2 50/25/2 49/46/2
f 49/46/10 50/25/10 46/26/10 45/32/10
f 47/13/4 51/45/4 49/46/4 45/14/4
f 46/26/10 50/25/10 56/25/10 53/26/10
f 56/25/2 55/19/2 59/19/2 60/25/2
f 52/19/11 48/11/11 54/11/11 55/19/11
f 50/25/14 52/19/14 55/19/14 56/25/14
f 48/11/3 46/10/3 53/10/3 54/11/3
f 59/19/1 58/4/1 57/1/1 60/25/1
f 54/11/3 53/10/3 57/10/3 58/11/3
f 53/26/10 56/25/10 60/25/10 57/26/10
f 55/19/11 54/11/11 58/11/11 59/19/11
