# Blender 4.0.2
# www.blender.org
mtllib ceilinglight.mtl
o Cube.001
v -0.890584 -0.208354 4.202241
v -1.000000 0.370665 4.330208
v -0.890584 -0.208354 -4.202241
v -1.000000 0.370665 -4.330208
v 0.890584 -0.208354 4.202241
v 1.000000 0.370665 4.330208
v 0.890584 -0.208354 -4.202241
v 1.000000 0.370665 -4.330208
v -1.000000 -0.208354 -4.330208
v -1.000000 -0.208354 4.330208
v 1.000000 -0.208354 -4.330208
v 1.000000 -0.208354 4.330208
v -0.890584 0.260519 -4.202241
v -0.890584 0.260519 4.202241
v 0.890584 0.260519 -4.202241
v 0.890584 0.260519 4.202241
v -0.000000 0.166265 -4.251768
v -0.000000 0.166265 4.251768
v 0.049563 0.148226 -4.251768
v 0.049563 0.148226 4.251768
v 0.075935 0.102548 -4.251768
v 0.075935 0.102548 4.251768
v 0.066776 0.050605 -4.251768
v 0.066776 0.050605 4.251768
v 0.026372 0.016702 -4.251768
v 0.026372 0.016702 4.251768
v -0.026372 0.016702 -4.251768
v -0.026372 0.016702 4.251768
v -0.066776 0.050605 -4.251768
v -0.066776 0.050605 4.251768
v -0.075935 0.102548 -4.251768
v -0.075935 0.102548 4.251768
v -0.049563 0.148226 -4.251768
v -0.049563 0.148226 4.251768
v 0.500000 0.166265 -4.251768
v 0.500000 0.166265 4.251768
v 0.549563 0.148226 -4.251768
v 0.549563 0.148226 4.251768
v 0.575935 0.102548 -4.251768
v 0.575935 0.102548 4.251768
v 0.566776 0.050605 -4.251768
v 0.566776 0.050605 4.251768
v 0.526372 0.016702 -4.251768
v 0.526372 0.016702 4.251768
v 0.473628 0.016702 -4.251768
v 0.473628 0.016702 4.251768
v 0.433224 0.050605 -4.251768
v 0.433224 0.050605 4.251768
v 0.424065 0.102548 -4.251768
v 0.424065 0.102548 4.251768
v 0.450437 0.148226 -4.251768
v 0.450437 0.148226 4.251768
v -0.500000 0.166265 -4.251768
v -0.500000 0.166265 4.251768
v -0.450437 0.148226 -4.251768
v -0.450437 0.148226 4.251768
v -0.424065 0.102548 -4.251768
v -0.424065 0.102548 4.251768
v -0.433224 0.050605 -4.251768
v -0.433224 0.050605 4.251768
v -0.473628 0.016702 -4.251768
v -0.473628 0.016702 4.251768
v -0.526372 0.016702 -4.251768
v -0.526372 0.016702 4.251768
v -0.566776 0.050605 -4.251768
v -0.566776 0.050605 4.251768
v -0.575935 0.102548 -4.251768
v -0.575935 0.102548 4.251768
v -0.549563 0.148226 -4.251768
v -0.549563 0.148226 4.251768
v -0.068894 0.356939 -3.000000
v -0.068894 3.188478 -3.000000
v 0.000000 0.356939 -3.068894
v 0.000000 3.188478 -3.068894
v 0.000000 0.356939 -2.931106
v 0.000000 3.188478 -2.931106
v 0.068894 0.356939 -3.000000
v 0.068894 3.188478 -3.000000
v -0.068894 0.356939 3.000000
v -0.068894 3.188478 3.000000
v 0.000000 0.356939 2.931106
v 0.000000 3.188478 2.931106
v 0.000000 0.356939 3.068894
v 0.000000 3.188478 3.068894
v 0.068894 0.356939 3.000000
v 0.068894 3.188478 3.000000
v -1.000000 -0.208354 -4.330208
v -1.000000 -0.208354 4.330208
v 1.000000 -0.208354 -4.330208
v 1.000000 -0.208354 4.330208
v -0.890584 -0.208354 -4.202241
v -0.890584 -0.208354 4.202241
v 0.890584 -0.208354 -4.202241
v 0.890584 -0.208354 4.202241
vn -0.9821 -0.0000 0.1884
vn -0.0693 0.9975 0.0133
vn -0.0693 0.9975 -0.0133
vn -0.9821 -0.0000 -0.1884
vn 0.0693 0.9975 -0.0133
vn 0.9821 -0.0000 -0.1884
vn 0.0693 0.9975 0.0133
vn 0.9821 -0.0000 0.1884
vn -0.0693 -0.9975 0.0133
vn 0.0693 -0.9975 0.0133
vn -0.0000 -1.0000 -0.0000
vn -0.0693 -0.9975 -0.0133
vn 0.0693 -0.9975 -0.0133
vn -0.0000 1.0000 -0.0085
vn -0.0000 1.0000 0.0085
vn 0.5152 0.8518 0.0950
vn 0.5152 0.8518 -0.0950
vn 0.9641 0.1932 0.1819
vn 0.9641 0.1932 -0.1819
vn 0.8159 -0.5574 0.1533
vn 0.8159 -0.5574 -0.1533
vn 0.0638 -0.9979 0.0129
vn 0.0638 -0.9979 -0.0129
vn -0.0638 -0.9979 0.0129
vn -0.0638 -0.9979 -0.0129
vn -0.8159 -0.5574 0.1533
vn -0.8159 -0.5574 -0.1533
vn -0.9641 0.1932 0.1819
vn -0.9641 0.1932 -0.1819
vn -0.5152 0.8518 0.0950
vn -0.5152 0.8518 -0.0950
vn -0.7071 -0.0000 -0.7071
vn 0.7071 -0.0000 -0.7071
vn 0.7071 -0.0000 0.7071
vn -0.7071 -0.0000 0.7071
vn -0.0000 1.0000 -0.0000
vt 0.375000 0.000000
vt 0.625000 0.000000
vt 0.625000 0.250000
vt 0.375000 0.250000
vt 0.625000 0.500000
vt 0.375000 0.500000
vt 0.625000 0.750000
vt 0.375000 0.750000
vt 0.625000 1.000000
vt 0.375000 1.000000
vt 0.132412 0.508923
vt 0.367589 0.508923
vt 0.875000 0.500000
vt 0.875000 0.750000
vt 0.132412 0.741077
vt 0.125000 0.750000
vt 0.125000 0.500000
vt 0.367588 0.741077
vt 1.000000 0.500000
vt 1.000000 1.000000
vt 0.888889 1.000000
vt 0.888889 0.500000
vt 0.777778 1.000000
vt 0.777778 0.500000
vt 0.666667 1.000000
vt 0.666667 0.500000
vt 0.555556 1.000000
vt 0.555556 0.500000
vt 0.444444 1.000000
vt 0.444444 0.500000
vt 0.333333 1.000000
vt 0.333333 0.500000
vt 0.222222 1.000000
vt 0.222222 0.500000
vt 0.404269 0.433851
vt 0.250000 0.490000
vt 0.095731 0.433851
vt 0.013646 0.291676
vt 0.042154 0.130000
vt 0.167915 0.024474
vt 0.332085 0.024474
vt 0.457846 0.130000
vt 0.486354 0.291676
vt 0.111111 1.000000
vt 0.111111 0.500000
vt 0.000000 1.000000
vt 0.000000 0.500000
vt 0.750000 0.490000
vt 0.904269 0.433851
vt 0.986354 0.291676
vt 0.957846 0.130000
vt 0.832085 0.024474
vt 0.667915 0.024474
vt 0.542154 0.130000
vt 0.513646 0.291676
vt 0.595731 0.433851
s 1
usemtl Material.006
f 88/1/1 2/2/2 4/3/3 87/4/4
f 87/4/4 4/3/3 8/5/5 89/6/6
f 89/6/6 8/5/5 6/7/7 90/8/8
f 90/8/8 6/7/7 2/9/2 88/10/1
f 8/5/5 4/13/3 2/14/2 6/7/7
f 91/11/11 92/15/11 10/16/11 9/17/11
f 7/12/11 91/11/11 9/17/11 11/6/11
f 94/18/11 7/12/11 11/6/11 12/8/11
f 92/15/11 94/18/11 12/8/11 10/16/11
usemtl Material.013
f 17/19/14 18/20/15 20/21/16 19/22/17
f 19/22/17 20/21/16 22/23/18 21/24/19
f 21/24/19 22/23/18 24/25/20 23/26/21
f 23/26/21 24/25/20 26/27/22 25/28/23
f 25/28/23 26/27/22 28/29/24 27/30/25
f 27/30/25 28/29/24 30/31/26 29/32/27
f 29/32/27 30/31/26 32/33/28 31/34/29
f 20/35/16 18/36/15 34/37/30 32/38/28 30/39/26 28/40/24 26/41/22 24/42/20 22/43/18
f 31/34/29 32/33/28 34/44/30 33/45/31
f 33/45/31 34/44/30 18/46/15 17/47/14
f 17/48/14 19/49/17 21/50/19 23/51/21 25/52/23 27/53/25 29/54/27 31/55/29 33/56/31
f 35/19/14 36/20/15 38/21/16 37/22/17
f 37/22/17 38/21/16 40/23/18 39/24/19
f 39/24/19 40/23/18 42/25/20 41/26/21
f 41/26/21 42/25/20 44/27/22 43/28/23
f 43/28/23 44/27/22 46/29/24 45/30/25
f 45/30/25 46/29/24 48/31/26 47/32/27
f 47/32/27 48/31/26 50/33/28 49/34/29
f 38/35/16 36/36/15 52/37/30 50/38/28 48/39/26 46/40/24 44/41/22 42/42/20 40/43/18
f 49/34/29 50/33/28 52/44/30 51/45/31
f 51/45/31 52/44/30 36/46/15 35/47/14
f 35/48/14 37/49/17 39/50/19 41/51/21 43/52/23 45/53/25 47/54/27 49/55/29 51/56/31
f 53/19/14 54/20/15 56/21/16 55/22/17
f 55/22/17 56/21/16 58/23/18 57/24/19
f 57/24/19 58/23/18 60/25/20 59/26/21
f 59/26/21 60/25/20 62/27/22 61/28/23
f 61/28/23 62/27/22 64/29/24 63/30/25
f 63/30/25 64/29/24 66/31/26 65/32/27
f 65/32/27 66/31/26 68/33/28 67/34/29
f 56/35/16 54/36/15 70/37/30 68/38/28 66/39/26 64/40/24 62/41/22 60/42/20 58/43/18
f 67/34/29 68/33/28 70/44/30 69/45/31
f 69/45/31 70/44/30 54/46/15 53/47/14
f 53/48/14 55/49/17 57/50/19 59/51/21 61/52/23 63/53/25 65/54/27 67/55/29 69/56/31
usemtl Material.001
f 3/11/8 93/12/1 15/12/9 13/11/10
f 13/11/10 15/12/9 16/18/12 14/15/13
f 93/12/1 5/18/4 16/18/12 15/12/9
f 1/15/6 3/11/8 13/11/10 14/15/13
f 5/18/4 1/15/6 14/15/13 16/18/12
s 0
usemtl Material
f 71/1/32 72/2/32 74/3/32 73/4/32
f 73/4/33 74/3/33 78/5/33 77/6/33
f 77/6/34 78/5/34 76/7/34 75/8/34
f 75/8/35 76/7/35 72/9/35 71/10/35
f 73/17/11 77/6/11 75/8/11 71/16/11
f 78/5/36 74/13/36 72/14/36 76/7/36
f 79/1/32 80/2/32 82/3/32 81/4/32
f 81/4/33 82/3/33 86/5/33 85/6/33
f 85/6/34 86/5/34 84/7/34 83/8/34
f 83/8/35 84/7/35 80/9/35 79/10/35
f 81/17/11 85/6/11 83/8/11 79/16/11
f 86/5/36 82/13/36 80/14/36 84/7/36
