# Blender 4.0.2
# www.blender.org
mtllib trukkilava.mtl
o Cube.008
v -1.208935 -0.292584 -0.797956
v -1.208935 -0.079451 -0.797956
v -1.193981 -0.292584 -1.010563
v -1.193981 -0.079451 -1.010563
v -0.996328 -0.292584 -0.783001
v -0.996328 -0.079451 -0.783001
v -0.981374 -0.292584 -0.995608
v -0.981374 -0.079451 -0.995608
v -1.196959 -0.028854 -0.800419
v -1.196959 0.028854 -0.800419
v -1.196959 -0.028854 -0.999919
v -1.196959 0.028854 -0.999919
v 1.000000 -0.028854 -0.800419
v 1.000000 0.028854 -0.800419
v 1.000000 -0.028854 -0.999919
v 1.000000 0.028854 -0.999919
v -1.196959 -0.028854 -0.401419
v -1.196959 0.028854 -0.401419
v -1.196959 -0.028854 -0.600919
v -1.196959 0.028854 -0.600919
v 1.000000 -0.028854 -0.401419
v 1.000000 0.028854 -0.401419
v 1.000000 -0.028854 -0.600919
v 1.000000 0.028854 -0.600919
v -1.196959 -0.028854 -0.002420
v -1.196959 0.028854 -0.002420
v -1.196959 -0.028854 -0.201920
v -1.196959 0.028854 -0.201920
v 1.000000 -0.028854 -0.002420
v 1.000000 0.028854 -0.002420
v 1.000000 -0.028854 -0.201920
v 1.000000 0.028854 -0.201920
v -1.196959 -0.028854 0.396580
v -1.196959 0.028854 0.396580
v -1.196959 -0.028854 0.197080
v -1.196959 0.028854 0.197080
v 1.000000 -0.028854 0.396579
v 1.000000 0.028854 0.396579
v 1.000000 -0.028854 0.197080
v 1.000000 0.028854 0.197080
v -1.196959 -0.028854 0.795579
v -1.196959 0.028854 0.795579
v -1.196959 -0.028854 0.596079
v -1.196959 0.028854 0.596079
v 1.000000 -0.028854 0.795579
v 1.000000 0.028854 0.795579
v 1.000000 -0.028854 0.596079
v 1.000000 0.028854 0.596079
v -1.196959 -0.028854 1.194578
v -1.196959 0.028854 1.194578
v -1.196959 -0.028854 0.995078
v -1.196959 0.028854 0.995078
v 1.000000 -0.028854 1.194578
v 1.000000 0.028854 1.194578
v 1.000000 -0.028854 0.995079
v 1.000000 0.028854 0.995079
v 0.793132 -0.083648 -1.007286
v 0.793132 -0.025939 -1.007286
v 0.992632 -0.083648 -1.007286
v 0.992632 -0.025939 -1.007286
v 0.793133 -0.083648 1.189673
v 0.793133 -0.025939 1.189673
v 0.992633 -0.083648 1.189673
v 0.992633 -0.025939 1.189673
v -1.189592 -0.083648 -1.007286
v -1.189592 -0.025939 -1.007286
v -0.990092 -0.083648 -1.007286
v -0.990092 -0.025939 -1.007286
v -1.189592 -0.083648 1.189673
v -1.189592 -0.025939 1.189673
v -0.990092 -0.083648 1.189673
v -0.990092 -0.025939 1.189673
v -1.196959 -0.349785 -0.800419
v -1.196959 -0.292077 -0.800419
v -1.196959 -0.349785 -0.999919
v -1.196959 -0.292077 -0.999919
v 1.000000 -0.349785 -0.800419
v 1.000000 -0.292077 -0.800419
v 1.000000 -0.349785 -0.999919
v 1.000000 -0.292077 -0.999919
v -1.196959 -0.349785 1.194578
v -1.196959 -0.292077 1.194578
v -1.196959 -0.349785 0.995078
v -1.196959 -0.292077 0.995078
v 1.000000 -0.349785 1.194578
v 1.000000 -0.292077 1.194578
v 1.000000 -0.349785 0.995079
v 1.000000 -0.292077 0.995079
v 0.784297 -0.292584 1.195771
v 0.784297 -0.079451 1.195771
v 0.787954 -0.292584 0.982670
v 0.787954 -0.079451 0.982670
v 0.997398 -0.292584 1.199428
v 0.997398 -0.079451 1.199428
v 1.001055 -0.292584 0.986327
v 1.001055 -0.079451 0.986327
v 0.790204 -0.292584 -0.786274
v 0.790204 -0.079451 -0.786274
v 0.782168 -0.292584 -0.999255
v 0.782168 -0.079451 -0.999255
v 1.003184 -0.292584 -0.794310
v 1.003184 -0.079451 -0.794310
v 0.995149 -0.292584 -1.007290
v 0.995149 -0.079451 -1.007290
v -1.197457 -0.292584 1.206274
v -1.197457 -0.079451 1.206274
v -1.205820 -0.292584 0.993306
v -1.205820 -0.079451 0.993306
v -0.984489 -0.292584 1.197911
v -0.984489 -0.079451 1.197911
v -0.992852 -0.292584 0.984943
v -0.992852 -0.079451 0.984943
vn -0.9975 -0.0000 -0.0702
vn 0.0702 -0.0000 -0.9975
vn 0.9975 -0.0000 0.0702
vn -0.0702 -0.0000 0.9975
vn -0.0000 -1.0000 -0.0000
vn -0.0000 1.0000 -0.0000
vn -1.0000 -0.0000 -0.0000
vn -0.0000 -0.0000 -1.0000
vn 1.0000 -0.0000 -0.0000
vn -0.0000 -0.0000 1.0000
vn -0.9999 -0.0000 -0.0172
vn 0.0172 -0.0000 -0.9999
vn 0.9999 -0.0000 0.0172
vn -0.0172 -0.0000 0.9999
vn -0.9993 -0.0000 0.0377
vn -0.0377 -0.0000 -0.9993
vn 0.9993 -0.0000 -0.0377
vn 0.0377 -0.0000 0.9993
vn -0.9992 -0.0000 0.0392
vn -0.0392 -0.0000 -0.9992
vn 0.9992 -0.0000 -0.0392
vn 0.0392 -0.0000 0.9992
vt 0.375000 0.000000
vt 0.625000 0.000000
vt 0.625000 0.250000
vt 0.375000 0.250000
vt 0.625000 0.500000
vt 0.375000 0.500000
vt 0.625000 0.750000
vt 0.375000 0.750000
vt 0.625000 1.000000
vt 0.375000 1.000000
vt 0.125000 0.500000
vt 0.125000 0.750000
vt 0.875000 0.500000
vt 0.875000 0.750000
s 0
f 1/1/1 2/2/1 4/3/1 3/4/1
f 3/4/2 4/3/2 8/5/2 7/6/2
f 7/6/3 8/5/3 6/7/3 5/8/3
f 5/8/4 6/7/4 2/9/4 1/10/4
f 3/11/5 7/6/5 5/8/5 1/12/5
f 8/5/6 4/13/6 2/14/6 6/7/6
f 9/1/7 10/2/7 12/3/7 11/4/7
f 11/4/8 12/3/8 16/5/8 15/6/8
f 15/6/9 16/5/9 14/7/9 13/8/9
f 13/8/10 14/7/10 10/9/10 9/10/10
f 11/11/5 15/6/5 13/8/5 9/12/5
f 16/5/6 12/13/6 10/14/6 14/7/6
f 17/1/7 18/2/7 20/3/7 19/4/7
f 19/4/8 20/3/8 24/5/8 23/6/8
f 23/6/9 24/5/9 22/7/9 21/8/9
f 21/8/10 22/7/10 18/9/10 17/10/10
f 19/11/5 23/6/5 21/8/5 17/12/5
f 24/5/6 20/13/6 18/14/6 22/7/6
f 25/1/7 26/2/7 28/3/7 27/4/7
f 27/4/8 28/3/8 32/5/8 31/6/8
f 31/6/9 32/5/9 30/7/9 29/8/9
f 29/8/10 30/7/10 26/9/10 25/10/10
f 27/11/5 31/6/5 29/8/5 25/12/5
f 32/5/6 28/13/6 26/14/6 30/7/6
f 33/1/7 34/2/7 36/3/7 35/4/7
f 35/4/8 36/3/8 40/5/8 39/6/8
f 39/6/9 40/5/9 38/7/9 37/8/9
f 37/8/10 38/7/10 34/9/10 33/10/10
f 35/11/5 39/6/5 37/8/5 33/12/5
f 40/5/6 36/13/6 34/14/6 38/7/6
f 41/1/7 42/2/7 44/3/7 43/4/7
f 43/4/8 44/3/8 48/5/8 47/6/8
f 47/6/9 48/5/9 46/7/9 45/8/9
f 45/8/10 46/7/10 42/9/10 41/10/10
f 43/11/5 47/6/5 45/8/5 41/12/5
f 48/5/6 44/13/6 42/14/6 46/7/6
f 49/1/7 50/2/7 52/3/7 51/4/7
f 51/4/8 52/3/8 56/5/8 55/6/8
f 55/6/9 56/5/9 54/7/9 53/8/9
f 53/8/10 54/7/10 50/9/10 49/10/10
f 51/11/5 55/6/5 53/8/5 49/12/5
f 56/5/6 52/13/6 50/14/6 54/7/6
f 57/1/8 58/2/8 60/3/8 59/4/8
f 59/4/9 60/3/9 64/5/9 63/6/9
f 63/6/10 64/5/10 62/7/10 61/8/10
f 61/8/7 62/7/7 58/9/7 57/10/7
f 59/11/5 63/6/5 61/8/5 57/12/5
f 64/5/6 60/13/6 58/14/6 62/7/6
f 65/1/8 66/2/8 68/3/8 67/4/8
f 67/4/9 68/3/9 72/5/9 71/6/9
f 71/6/10 72/5/10 70/7/10 69/8/10
f 69/8/7 70/7/7 66/9/7 65/10/7
f 67/11/5 71/6/5 69/8/5 65/12/5
f 72/5/6 68/13/6 66/14/6 70/7/6
f 73/1/7 74/2/7 76/3/7 75/4/7
f 75/4/8 76/3/8 80/5/8 79/6/8
f 79/6/9 80/5/9 78/7/9 77/8/9
f 77/8/10 78/7/10 74/9/10 73/10/10
f 75/11/5 79/6/5 77/8/5 73/12/5
f 80/5/6 76/13/6 74/14/6 78/7/6
f 81/1/7 82/2/7 84/3/7 83/4/7
f 83/4/8 84/3/8 88/5/8 87/6/8
f 87/6/9 88/5/9 86/7/9 85/8/9
f 85/8/10 86/7/10 82/9/10 81/10/10
f 83/11/5 87/6/5 85/8/5 81/12/5
f 88/5/6 84/13/6 82/14/6 86/7/6
f 89/1/11 90/2/11 92/3/11 91/4/11
f 91/4/12 92/3/12 96/5/12 95/6/12
f 95/6/13 96/5/13 94/7/13 93/8/13
f 93/8/14 94/7/14 90/9/14 89/10/14
f 91/11/5 95/6/5 93/8/5 89/12/5
f 96/5/6 92/13/6 90/14/6 94/7/6
f 97/1/15 98/2/15 100/3/15 99/4/15
f 99/4/16 100/3/16 104/5/16 103/6/16
f 103/6/17 104/5/17 102/7/17 101/8/17
f 101/8/18 102/7/18 98/9/18 97/10/18
f 99/11/5 103/6/5 101/8/5 97/12/5
f 104/5/6 100/13/6 98/14/6 102/7/6
f 105/1/19 106/2/19 108/3/19 107/4/19
f 107/4/20 108/3/20 112/5/20 111/6/20
f 111/6/21 112/5/21 110/7/21 109/8/21
f 109/8/22 110/7/22 106/9/22 105/10/22
f 107/11/5 111/6/5 109/8/5 105/12/5
f 112/5/6 108/13/6 106/14/6 110/7/6
