# Blender 4.0.2
# www.blender.org
mtllib tfroom_keyboard.mtl
o Cube.005
v 0.197537 1.042109 34.728046
v 0.205426 1.073762 34.719597
v 0.195187 1.042109 34.659550
v 0.203637 1.073762 34.667439
v 0.266033 1.042109 34.725697
v 0.257583 1.073762 34.717804
v 0.263683 1.042109 34.657200
v 0.255793 1.073762 34.665649
v 0.129040 1.042109 34.730396
v 0.136930 1.073762 34.721947
v 0.126690 1.042109 34.661900
v 0.135140 1.073762 34.669788
v 0.197537 1.042109 34.728046
v 0.189086 1.073762 34.720158
v 0.195187 1.042109 34.659550
v 0.187297 1.073762 34.667999
v 0.060544 1.042109 34.732746
v 0.068433 1.073762 34.724297
v 0.058193 1.042109 34.664249
v 0.066644 1.073762 34.672138
v 0.129040 1.042109 34.730396
v 0.120590 1.073762 34.722507
v 0.126690 1.042109 34.661900
v 0.118800 1.073762 34.670349
v -0.007953 1.042109 34.735096
v -0.000063 1.073762 34.726646
v -0.010303 1.042109 34.666599
v -0.001853 1.073762 34.674488
v 0.060544 1.042109 34.732746
v 0.052093 1.073762 34.724857
v 0.058193 1.042109 34.664249
v 0.050304 1.073762 34.672699
v -0.076450 1.042109 34.737446
v -0.068560 1.073762 34.728996
v -0.078800 1.042109 34.668949
v -0.070349 1.073762 34.676838
v -0.007953 1.042109 34.735096
v -0.016403 1.073762 34.727207
v -0.010303 1.042109 34.666599
v -0.018193 1.073762 34.675049
v -0.144946 1.042109 34.739796
v -0.137056 1.073762 34.731346
v -0.147296 1.042109 34.671299
v -0.138846 1.073762 34.679188
v -0.076450 1.042109 34.737446
v -0.084900 1.073762 34.729557
v -0.078800 1.042109 34.668949
v -0.086690 1.073762 34.677399
v -0.213443 1.042109 34.742146
v -0.205553 1.073762 34.733696
v -0.215793 1.042109 34.673649
v -0.207342 1.073762 34.681541
v -0.144946 1.042109 34.739796
v -0.153397 1.073762 34.731907
v -0.147296 1.042109 34.671299
v -0.155186 1.073762 34.679749
v -0.313502 0.993643 34.753078
v -0.299183 1.072501 34.737385
v -0.316031 0.993643 34.679359
v -0.301049 1.072501 34.683018
v -0.216919 0.993643 34.749763
v -0.224066 1.072501 34.734810
v -0.219448 0.993643 34.676044
v -0.225931 1.072501 34.680443
v -0.244772 0.993643 34.676914
v -0.248493 1.072501 34.681217
v -0.242242 0.993643 34.750633
v -0.246628 1.072501 34.735584
v -0.303333 1.072501 34.616447
v -0.318954 0.993643 34.594177
v -0.247694 0.993643 34.591732
v -0.250777 1.072501 34.614647
v -0.316866 0.989505 34.767220
v -0.316866 1.052193 34.767220
v -0.327839 0.989505 34.447411
v -0.327839 1.026770 34.447411
v 0.300827 0.989505 34.746025
v 0.300827 1.052193 34.746025
v 0.289854 0.989505 34.426216
v 0.289854 1.026770 34.426216
v -0.174723 0.997390 34.526821
v -0.144670 1.056385 34.512196
v -0.177390 0.997390 34.449100
v -0.146405 1.056385 34.461636
v 0.129703 0.997390 34.516376
v 0.098718 1.056385 34.503845
v 0.127036 0.997390 34.438656
v 0.096983 1.056385 34.453281
v 0.211457 1.029663 34.583866
v 0.219347 1.061316 34.575413
v 0.209107 1.029663 34.515369
v 0.217557 1.061316 34.523258
v 0.279954 1.029663 34.581516
v 0.271503 1.061316 34.573624
v 0.277604 1.029663 34.513020
v 0.269714 1.061316 34.521469
v 0.142961 1.029663 34.586216
v 0.150850 1.061316 34.577766
v 0.140610 1.029663 34.517719
v 0.149061 1.061316 34.525608
v 0.211457 1.029663 34.583866
v 0.203007 1.061316 34.575974
v 0.209107 1.029663 34.515369
v 0.201217 1.061316 34.523819
v 0.074464 1.029663 34.588566
v 0.082354 1.061316 34.580116
v 0.072114 1.029663 34.520069
v 0.080564 1.061316 34.527958
v 0.142961 1.029663 34.586216
v 0.134510 1.061316 34.578323
v 0.140610 1.029663 34.517719
v 0.132721 1.061316 34.526169
v 0.005967 1.029663 34.590916
v 0.013857 1.061316 34.582466
v 0.003617 1.029663 34.522419
v 0.012068 1.061316 34.530308
v 0.074464 1.029663 34.588566
v 0.066014 1.061316 34.580677
v 0.072114 1.029663 34.520069
v 0.064224 1.061316 34.528519
v -0.062529 1.029663 34.593266
v -0.054639 1.061316 34.584816
v -0.064879 1.029663 34.524769
v -0.056429 1.061316 34.532658
v 0.005967 1.029663 34.590916
v -0.002483 1.061316 34.583027
v 0.003617 1.029663 34.522419
v -0.004272 1.061316 34.530869
v -0.131026 1.029663 34.595615
v -0.123136 1.061316 34.587166
v -0.133376 1.029663 34.527119
v -0.124925 1.061316 34.535007
v -0.062529 1.029663 34.593266
v -0.070980 1.061316 34.585377
v -0.064879 1.029663 34.524769
v -0.072769 1.061316 34.533218
v -0.199522 1.029663 34.597965
v -0.191632 1.061316 34.589516
v -0.201872 1.029663 34.529469
v -0.193422 1.061316 34.537357
v -0.131026 1.029663 34.595615
v -0.139476 1.061316 34.587727
v -0.133376 1.029663 34.527119
v -0.141266 1.061316 34.535568
v -0.309386 1.029663 34.601734
v -0.301496 1.061316 34.593285
v -0.311736 1.029663 34.533237
v -0.303286 1.061316 34.541130
v -0.200528 1.029663 34.598000
v -0.208978 1.061316 34.590111
v -0.202878 1.029663 34.529503
v -0.210768 1.061316 34.537952
v 0.169676 1.035172 34.657745
v 0.177566 1.066826 34.649296
v 0.167326 1.035172 34.589249
v 0.175776 1.066826 34.597137
v 0.238172 1.035172 34.655396
v 0.229722 1.066826 34.647507
v 0.235822 1.035172 34.586899
v 0.227932 1.066826 34.595348
v 0.101179 1.035172 34.660095
v 0.109069 1.066826 34.651646
v 0.098829 1.035172 34.591599
v 0.107280 1.066826 34.599487
v 0.169676 1.035172 34.657745
v 0.161225 1.066826 34.649857
v 0.167326 1.035172 34.589249
v 0.159436 1.066826 34.597698
v 0.032683 1.035172 34.662445
v 0.040573 1.066826 34.653996
v 0.030333 1.035172 34.593948
v 0.038783 1.066826 34.601837
v 0.101179 1.035172 34.660095
v 0.092729 1.066826 34.652206
v 0.098829 1.035172 34.591599
v 0.090939 1.066826 34.600048
v -0.035814 1.035172 34.664795
v -0.027924 1.066826 34.656345
v -0.038164 1.035172 34.596298
v -0.029714 1.066826 34.604187
v 0.032683 1.035172 34.662445
v 0.024232 1.066826 34.654556
v 0.030333 1.035172 34.593948
v 0.022443 1.066826 34.602398
v -0.104310 1.035172 34.667145
v -0.096421 1.066826 34.658695
v -0.106661 1.035172 34.598648
v -0.098210 1.066826 34.606537
v -0.035814 1.035172 34.664795
v -0.044264 1.066826 34.656906
v -0.038164 1.035172 34.596298
v -0.046054 1.066826 34.604748
v -0.172807 1.035172 34.669495
v -0.164917 1.066826 34.661045
v -0.175157 1.035172 34.600998
v -0.166707 1.066826 34.608891
v -0.104310 1.035172 34.667145
v -0.112761 1.066826 34.659256
v -0.106661 1.035172 34.598648
v -0.114550 1.066826 34.607098
v -0.241303 1.035172 34.671844
v -0.233414 1.066826 34.663395
v -0.243654 1.035172 34.603348
v -0.235203 1.066826 34.611240
v -0.172807 1.035172 34.669495
v -0.181257 1.066826 34.661606
v -0.175157 1.035172 34.600998
v -0.183047 1.066826 34.609451
v -0.037503 1.003271 34.954758
v -0.025743 1.003271 34.954758
v -0.005880 1.029405 34.758644
v 0.005880 1.029405 34.758644
v -0.008562 1.016338 34.856701
v 0.003198 1.016338 34.856701
v -0.016826 1.009805 34.905731
v -0.005065 1.009805 34.905731
v 0.005880 1.022871 34.807671
v -0.005880 1.022871 34.807671
v -0.037503 0.342054 35.059162
v -0.025743 0.342054 35.059162
v -0.037503 0.118596 35.147079
v -0.025743 0.118596 35.147079
v -0.037503 0.023351 35.249649
v -0.025743 0.023351 35.249649
v -0.037503 0.008698 35.357716
v -0.025743 0.008698 35.357716
v -0.094208 0.008698 36.557968
v -0.082448 0.008698 36.557968
v -0.245421 0.008698 37.871628
v -0.233660 0.008698 37.871628
v -0.349379 0.008698 39.156933
v -0.337619 0.008698 39.156933
v -0.349379 0.008698 40.243774
v -0.337619 0.008698 40.243774
v -0.264322 0.008698 41.151051
v -0.252562 0.008698 41.151051
v -0.065855 0.008698 41.812607
v -0.054095 0.008698 41.812607
v 0.044280 0.008698 41.978855
v 0.050989 0.008698 41.969196
v 0.165810 0.008698 41.999683
v 0.167570 0.008698 41.988056
v 0.247807 0.008698 41.943844
v 0.238209 0.008698 41.937050
v 0.273309 0.008698 41.865597
v 0.261550 0.008698 41.865715
v 0.263292 0.008698 41.793911
v 0.253249 0.008698 41.800030
v 0.215280 0.008698 41.745438
v 0.212734 0.008698 41.756920
v 0.135050 0.008698 41.737774
v 0.137278 0.008698 41.749321
v 0.041847 0.008698 41.779182
v 0.050370 0.008698 41.787285
v -0.010867 0.008698 41.842850
v -0.000710 0.008698 41.848778
v -0.064289 0.008698 42.026012
v -0.054132 0.008698 42.031940
v -0.103974 0.008698 42.306862
v -0.093818 0.008698 42.312790
v -0.143353 0.008698 43.692978
v -0.133196 0.008698 43.698906
v -0.057382 0.008698 44.894321
v -0.045903 0.008698 44.891766
v -0.057382 0.126833 45.557186
v -0.045903 0.126833 45.554630
v -0.057382 0.489113 46.124233
v -0.045903 0.489113 46.121677
v -0.057382 1.040410 46.644028
v -0.045903 1.040410 46.641472
v -0.057382 1.757095 47.037811
v -0.045903 1.757095 47.035255
v -0.057382 2.379272 47.155949
v -0.045903 2.379272 47.153393
v -0.057382 3.663004 47.077190
v -0.045903 3.663004 47.074635
vn -0.9677 0.2501 0.0332
vn -0.0332 0.2501 -0.9677
vn 0.9677 0.2501 -0.0332
vn 0.0332 0.2501 0.9676
vn -0.0000 -1.0000 -0.0000
vn -0.0000 1.0000 -0.0000
vn -0.0332 0.2501 -0.9676
vn 0.9677 0.2500 -0.0332
vn 0.0332 0.2500 0.9677
vn -0.9677 0.2500 0.0332
vn 0.0332 0.2501 0.9677
vn -0.0332 0.2500 -0.9677
vn -0.9822 0.1850 0.0337
vn -0.0343 0.0528 -0.9980
vn 0.9959 0.0838 -0.0342
vn 0.0337 0.1892 0.9814
vn -0.0329 0.2777 -0.9601
vn 0.9982 0.0490 -0.0343
vn -0.9994 -0.0000 0.0343
vn -0.0343 -0.0000 -0.9994
vn 0.9994 -0.0000 -0.0343
vn 0.0343 -0.0000 0.9994
vn -0.0027 0.9969 -0.0792
vn -0.8876 0.4597 0.0305
vn -0.0334 0.2245 -0.9739
vn 0.8876 0.4597 -0.0305
vn 0.0334 0.2244 0.9739
vn 0.0332 0.2502 0.9676
vn -0.0332 0.2502 -0.9676
vn 0.0332 0.2499 0.9677
vn -0.0000 0.9912 0.1321
vn -0.0000 0.1560 0.9878
vn -0.0000 0.3661 0.9306
vn -0.0000 0.7328 0.6805
vn -0.0000 0.9909 0.1344
vn -0.0390 0.9837 -0.1753
vn -0.1190 0.8367 -0.5346
vn -0.1599 0.6772 -0.7182
vn -0.1915 0.4726 -0.8602
vn -0.2137 0.1822 -0.9598
vn -0.2169 -0.0598 -0.9744
vt 0.375000 0.000000
vt 0.625000 0.000000
vt 0.625000 0.250000
vt 0.375000 0.250000
vt 0.625000 0.500000
vt 0.375000 0.500000
vt 0.625000 0.750000
vt 0.375000 0.750000
vt 0.625000 1.000000
vt 0.375000 1.000000
vt 0.125000 0.500000
vt 0.125000 0.750000
vt 0.875000 0.500000
vt 0.875000 0.750000
vt 0.375000 0.436904
vt 0.625000 0.436904
vt 0.375000 0.813095
vt 0.625000 0.813095
vt 0.311904 0.500000
vt 0.311904 0.750000
vt 0.688095 0.500000
vt 0.688095 0.750000
vt 0.000000 0.750000
vt 1.000000 0.750000
vt 1.000000 1.000000
vt 0.000000 1.000000
vt 0.000000 0.250000
vt 1.000000 0.250000
vt 1.000000 0.500000
vt 0.000000 0.500000
vt 0.000000 0.000000
vt 1.000000 0.000000
s 0
usemtl Material3
f 1/1/1 2/2/1 4/3/1 3/4/1
f 3/4/2 4/3/2 8/5/2 7/6/2
f 7/6/3 8/5/3 6/7/3 5/8/3
f 5/8/4 6/7/4 2/9/4 1/10/4
f 3/11/5 7/6/5 5/8/5 1/12/5
f 8/5/6 4/13/6 2/14/6 6/7/6
f 9/1/1 10/2/1 12/3/1 11/4/1
f 11/4/7 12/3/7 16/5/7 15/6/7
f 15/6/8 16/5/8 14/7/8 13/8/8
f 13/8/9 14/7/9 10/9/9 9/10/9
f 11/11/5 15/6/5 13/8/5 9/12/5
f 16/5/6 12/13/6 10/14/6 14/7/6
f 17/1/1 18/2/1 20/3/1 19/4/1
f 19/4/7 20/3/7 24/5/7 23/6/7
f 23/6/8 24/5/8 22/7/8 21/8/8
f 21/8/9 22/7/9 18/9/9 17/10/9
f 19/11/5 23/6/5 21/8/5 17/12/5
f 24/5/6 20/13/6 18/14/6 22/7/6
f 25/1/10 26/2/10 28/3/10 27/4/10
f 27/4/7 28/3/7 32/5/7 31/6/7
f 31/6/3 32/5/3 30/7/3 29/8/3
f 29/8/11 30/7/11 26/9/11 25/10/11
f 27/11/5 31/6/5 29/8/5 25/12/5
f 32/5/6 28/13/6 26/14/6 30/7/6
f 33/1/10 34/2/10 36/3/10 35/4/10
f 35/4/7 36/3/7 40/5/7 39/6/7
f 39/6/3 40/5/3 38/7/3 37/8/3
f 37/8/9 38/7/9 34/9/9 33/10/9
f 35/11/5 39/6/5 37/8/5 33/12/5
f 40/5/6 36/13/6 34/14/6 38/7/6
f 41/1/10 42/2/10 44/3/10 43/4/10
f 43/4/12 44/3/12 48/5/12 47/6/12
f 47/6/3 48/5/3 46/7/3 45/8/3
f 45/8/9 46/7/9 42/9/9 41/10/9
f 43/11/5 47/6/5 45/8/5 41/12/5
f 48/5/6 44/13/6 42/14/6 46/7/6
f 49/1/1 50/2/1 52/3/1 51/4/1
f 51/4/12 52/3/12 56/5/12 55/6/12
f 55/6/8 56/5/8 54/7/8 53/8/8
f 53/8/4 54/7/4 50/9/4 49/10/4
f 51/11/5 55/6/5 53/8/5 49/12/5
f 56/5/6 52/13/6 50/14/6 54/7/6
f 57/1/13 58/2/13 60/3/13 59/4/13
f 65/15/14 66/16/14 64/5/14 63/6/14
f 63/6/15 64/5/15 62/7/15 61/8/15
f 67/17/16 68/18/16 58/9/16 57/10/16
f 65/19/5 63/6/5 61/8/5 67/20/5
f 66/21/6 60/13/6 58/14/6 68/22/6
f 64/5/6 66/21/6 68/22/6 62/7/6
f 59/11/5 65/19/5 67/20/5 57/12/5
f 61/8/16 62/7/16 68/18/16 67/17/16
f 65/19/5 59/11/5 70/11/5 71/19/5
f 70/4/17 69/3/17 72/16/17 71/15/17
f 60/13/6 66/21/6 72/21/6 69/13/6
f 59/4/13 60/3/13 69/3/13 70/4/13
f 66/16/18 65/15/18 71/15/18 72/16/18
f 81/1/24 82/2/24 84/3/24 83/4/24
f 83/4/25 84/3/25 88/5/25 87/6/25
f 87/6/26 88/5/26 86/7/26 85/8/26
f 85/8/27 86/7/27 82/9/27 81/10/27
f 83/11/5 87/6/5 85/8/5 81/12/5
f 88/5/6 84/13/6 82/14/6 86/7/6
f 89/1/10 90/2/10 92/3/10 91/4/10
f 91/4/12 92/3/12 96/5/12 95/6/12
f 95/6/3 96/5/3 94/7/3 93/8/3
f 93/8/4 94/7/4 90/9/4 89/10/4
f 91/11/5 95/6/5 93/8/5 89/12/5
f 96/5/6 92/13/6 90/14/6 94/7/6
f 97/1/10 98/2/10 100/3/10 99/4/10
f 99/4/7 100/3/7 104/5/7 103/6/7
f 103/6/8 104/5/8 102/7/8 101/8/8
f 101/8/28 102/7/28 98/9/28 97/10/28
f 99/11/5 103/6/5 101/8/5 97/12/5
f 104/5/6 100/13/6 98/14/6 102/7/6
f 105/1/1 106/2/1 108/3/1 107/4/1
f 107/4/2 108/3/2 112/5/2 111/6/2
f 111/6/3 112/5/3 110/7/3 109/8/3
f 109/8/11 110/7/11 106/9/11 105/10/11
f 107/11/5 111/6/5 109/8/5 105/12/5
f 112/5/6 108/13/6 106/14/6 110/7/6
f 113/1/1 114/2/1 116/3/1 115/4/1
f 115/4/29 116/3/29 120/5/29 119/6/29
f 119/6/8 120/5/8 118/7/8 117/8/8
f 117/8/28 118/7/28 114/9/28 113/10/28
f 115/11/5 119/6/5 117/8/5 113/12/5
f 120/5/6 116/13/6 114/14/6 118/7/6
f 121/1/10 122/2/10 124/3/10 123/4/10
f 123/4/7 124/3/7 128/5/7 127/6/7
f 127/6/8 128/5/8 126/7/8 125/8/8
f 125/8/11 126/7/11 122/9/11 121/10/11
f 123/11/5 127/6/5 125/8/5 121/12/5
f 128/5/6 124/13/6 122/14/6 126/7/6
f 129/1/10 130/2/10 132/3/10 131/4/10
f 131/4/29 132/3/29 136/5/29 135/6/29
f 135/6/8 136/5/8 134/7/8 133/8/8
f 133/8/4 134/7/4 130/9/4 129/10/4
f 131/11/5 135/6/5 133/8/5 129/12/5
f 136/5/6 132/13/6 130/14/6 134/7/6
f 137/1/10 138/2/10 140/3/10 139/4/10
f 139/4/7 140/3/7 144/5/7 143/6/7
f 143/6/3 144/5/3 142/7/3 141/8/3
f 141/8/9 142/7/9 138/9/9 137/10/9
f 139/11/5 143/6/5 141/8/5 137/12/5
f 144/5/6 140/13/6 138/14/6 142/7/6
f 145/1/1 146/2/1 148/3/1 147/4/1
f 147/4/2 148/3/2 152/5/2 151/6/2
f 151/6/3 152/5/3 150/7/3 149/8/3
f 149/8/9 150/7/9 146/9/9 145/10/9
f 147/11/5 151/6/5 149/8/5 145/12/5
f 152/5/6 148/13/6 146/14/6 150/7/6
f 153/1/1 154/2/1 156/3/1 155/4/1
f 155/4/12 156/3/12 160/5/12 159/6/12
f 159/6/3 160/5/3 158/7/3 157/8/3
f 157/8/9 158/7/9 154/9/9 153/10/9
f 155/11/5 159/6/5 157/8/5 153/12/5
f 160/5/6 156/13/6 154/14/6 158/7/6
f 161/1/1 162/2/1 164/3/1 163/4/1
f 163/4/12 164/3/12 168/5/12 167/6/12
f 167/6/3 168/5/3 166/7/3 165/8/3
f 165/8/9 166/7/9 162/9/9 161/10/9
f 163/11/5 167/6/5 165/8/5 161/12/5
f 168/5/6 164/13/6 162/14/6 166/7/6
f 169/1/10 170/2/10 172/3/10 171/4/10
f 171/4/12 172/3/12 176/5/12 175/6/12
f 175/6/3 176/5/3 174/7/3 173/8/3
f 173/8/9 174/7/9 170/9/9 169/10/9
f 171/11/5 175/6/5 173/8/5 169/12/5
f 176/5/6 172/13/6 170/14/6 174/7/6
f 177/1/1 178/2/1 180/3/1 179/4/1
f 179/4/12 180/3/12 184/5/12 183/6/12
f 183/6/3 184/5/3 182/7/3 181/8/3
f 181/8/30 182/7/30 178/9/30 177/10/30
f 179/11/5 183/6/5 181/8/5 177/12/5
f 184/5/6 180/13/6 178/14/6 182/7/6
f 185/1/1 186/2/1 188/3/1 187/4/1
f 187/4/2 188/3/2 192/5/2 191/6/2
f 191/6/3 192/5/3 190/7/3 189/8/3
f 189/8/30 190/7/30 186/9/30 185/10/30
f 187/11/5 191/6/5 189/8/5 185/12/5
f 192/5/6 188/13/6 186/14/6 190/7/6
f 193/1/10 194/2/10 196/3/10 195/4/10
f 195/4/12 196/3/12 200/5/12 199/6/12
f 199/6/3 200/5/3 198/7/3 197/8/3
f 197/8/30 198/7/30 194/9/30 193/10/30
f 195/11/5 199/6/5 197/8/5 193/12/5
f 200/5/6 196/13/6 194/14/6 198/7/6
f 201/1/1 202/2/1 204/3/1 203/4/1
f 203/4/29 204/3/29 208/5/29 207/6/29
f 207/6/3 208/5/3 206/7/3 205/8/3
f 205/8/9 206/7/9 202/9/9 201/10/9
f 203/11/5 207/6/5 205/8/5 201/12/5
f 208/5/6 204/13/6 202/14/6 206/7/6
usemtl Material4
f 218/23/31 217/24/31 212/25/31 211/26/31
f 215/27/31 216/28/31 214/29/31 213/30/31
f 209/31/31 210/32/31 216/28/31 215/27/31
f 213/30/31 214/29/31 217/24/31 218/23/31
f 210/32/32 209/31/32 219/31/32 220/32/32
f 220/32/33 219/31/33 221/31/33 222/32/33
f 222/32/34 221/31/34 223/31/34 224/32/34
f 224/32/35 223/31/35 225/31/35 226/32/35
f 226/32/6 225/31/6 227/31/6 228/32/6
f 228/32/6 227/31/6 229/31/6 230/32/6
f 230/32/6 229/31/6 231/31/6 232/32/6
f 232/32/6 231/31/6 233/31/6 234/32/6
f 234/32/6 233/31/6 235/31/6 236/32/6
f 236/32/6 235/31/6 237/31/6 238/32/6
f 238/32/6 237/31/6 239/31/6 240/32/6
f 240/32/6 239/31/6 241/31/6 242/32/6
f 242/32/6 241/31/6 243/31/6 244/32/6
f 244/32/6 243/31/6 245/31/6 246/32/6
f 246/32/6 245/31/6 247/31/6 248/32/6
f 248/32/6 247/31/6 249/31/6 250/32/6
f 250/32/6 249/31/6 251/31/6 252/32/6
f 252/32/6 251/31/6 253/31/6 254/32/6
f 254/32/6 253/31/6 255/31/6 256/32/6
f 256/32/6 255/31/6 257/31/6 258/32/6
f 258/32/6 257/31/6 259/31/6 260/32/6
f 260/32/6 259/31/6 261/31/6 262/32/6
f 262/32/6 261/31/6 263/31/6 264/32/6
f 264/32/36 263/31/36 265/31/36 266/32/36
f 266/32/37 265/31/37 267/31/37 268/32/37
f 268/32/38 267/31/38 269/31/38 270/32/38
f 270/32/39 269/31/39 271/31/39 272/32/39
f 272/32/40 271/31/40 273/31/40 274/32/40
f 274/32/41 273/31/41 275/31/41 276/32/41
usemtl Material5
f 73/1/19 74/2/19 76/3/19 75/4/19
f 75/4/20 76/3/20 80/5/20 79/6/20
f 79/6/21 80/5/21 78/7/21 77/8/21
f 77/8/22 78/7/22 74/9/22 73/10/22
f 75/11/5 79/6/5 77/8/5 73/12/5
f 80/5/23 76/13/23 74/14/23 78/7/23
