# Blender 4.0.2
# www.blender.org
mtllib shorty_pump.mtl
o Cylinder.001
v 2.594911 -0.133047 -0.320065
v 1.092628 -0.133047 -0.320065
v 2.594912 -0.010563 -0.295701
v 1.092628 -0.010563 -0.295701
v 2.594912 0.093273 -0.226320
v 1.092628 0.093273 -0.226320
v 2.594912 0.162655 -0.122484
v 1.092628 0.162655 -0.122484
v 2.594912 0.187018 0.000000
v 1.092628 0.187018 -0.000000
v 2.594911 0.162655 0.122484
v 1.092628 0.162655 0.122484
v 2.594911 0.093273 0.226320
v 1.092628 0.093273 0.226320
v 2.594911 -0.010563 0.295701
v 1.092628 -0.010563 0.295701
v 2.594911 -0.133047 0.320065
v 1.092628 -0.133047 0.320065
v 2.594911 -0.255530 0.295701
v 1.092628 -0.255530 0.295701
v 2.594911 -0.359367 0.226320
v 1.092628 -0.359367 0.226320
v 2.594911 -0.428748 0.122484
v 1.092628 -0.428748 0.122484
v 2.594911 -0.453112 0.000000
v 1.092628 -0.453112 -0.000000
v 2.594911 -0.428748 -0.122484
v 1.092628 -0.428748 -0.122484
v 2.594911 -0.359367 -0.226320
v 1.092628 -0.359367 -0.226320
v 2.594911 -0.255530 -0.295701
v 1.092628 -0.255530 -0.295701
v 0.990081 0.014509 -0.246198
v 0.990081 -0.087470 -0.266483
v 0.990081 0.100962 -0.188432
v 0.990081 0.158728 -0.101979
v 0.990081 0.179013 -0.000000
v 0.990081 0.158728 0.101979
v 0.990081 0.100962 0.188432
v 0.990081 0.014509 0.246198
v 0.990081 -0.087470 0.266483
v 0.990081 -0.189449 0.246198
v 0.990081 -0.275902 0.188432
v 0.990081 -0.333669 0.101979
v 0.990081 -0.353953 -0.000000
v 0.990081 -0.333669 -0.101979
v 0.990081 -0.275902 -0.188432
v 0.990081 -0.189449 -0.246198
v 1.092628 0.276460 -0.176987
v 2.594911 0.276460 -0.176987
v 2.594911 0.276460 -0.122483
v 1.092628 0.276460 -0.122484
v 1.092628 0.276460 0.122484
v 2.594911 0.276460 0.122484
v 2.594911 0.276460 0.176987
v 1.092628 0.276460 0.176987
v 2.717680 -0.098231 -0.275145
v 2.717681 0.007062 -0.254201
v 2.717681 0.096326 -0.194557
v 2.717681 0.155969 -0.105293
v 2.717681 0.176914 0.000000
v 2.717680 0.155969 0.105293
v 2.717680 0.096326 0.194557
v 2.717680 0.007062 0.254201
v 2.717680 -0.098231 0.275145
v 2.717680 -0.203525 0.254201
v 2.717680 -0.292788 0.194557
v 2.717680 -0.352432 0.105293
v 2.717680 -0.373376 0.000000
v 2.717680 -0.352432 -0.105293
v 2.717680 -0.292788 -0.194557
v 2.717680 -0.203525 -0.254201
v 2.446003 -0.133047 -0.320065
v 2.446003 -0.010563 -0.295701
v 2.446003 0.093273 -0.226320
v 2.446003 0.162655 -0.122484
v 2.446003 0.187018 0.000000
v 2.446003 0.162655 0.122484
v 2.446003 0.093273 0.226320
v 2.446003 -0.010563 0.295701
v 2.446003 -0.133047 0.320065
v 2.432816 -0.289818 0.295701
v 2.432816 -0.393655 0.226320
v 2.432816 -0.463036 0.122484
v 2.432816 -0.487399 0.000000
v 2.432816 -0.463036 -0.122484
v 2.432816 -0.393655 -0.226320
v 2.432816 -0.289818 -0.295701
v 2.446003 0.276460 -0.176987
v 2.446003 0.276460 -0.122484
v 2.446003 0.276460 0.122484
v 2.446003 0.276460 0.176987
v 2.490842 -0.541802 0.208125
v 2.595649 -0.541802 0.208125
v 2.595649 -0.614886 0.159292
v 2.490842 -0.614886 0.159292
v 2.595649 -0.663719 0.086208
v 2.490842 -0.663719 0.086208
v 2.595649 -0.680867 0.000000
v 2.490842 -0.680867 0.000000
v 2.595649 -0.663719 -0.086208
v 2.490842 -0.663719 -0.086208
v 2.595649 -0.614886 -0.159292
v 2.490842 -0.614886 -0.159292
v 2.595649 -0.541802 -0.208125
v 2.490842 -0.541802 -0.208125
v 2.327919 -0.133047 -0.320065
v 2.327919 -0.010563 -0.295701
v 2.327919 0.093273 -0.226320
v 2.327919 0.162655 -0.122484
v 2.327919 0.187018 0.000000
v 2.327919 0.162655 0.122484
v 2.327919 0.093273 0.226320
v 2.327919 -0.010563 0.295701
v 2.327919 -0.133047 0.320065
v 2.327919 -0.255530 0.295701
v 2.327919 -0.359367 0.226320
v 2.327919 -0.428748 0.122484
v 2.327919 -0.453112 0.000000
v 2.327919 -0.428748 -0.122484
v 2.327919 -0.359367 -0.226320
v 2.327919 -0.255530 -0.295701
v 2.327919 0.276460 -0.176987
v 2.327919 0.276460 -0.122484
v 2.327919 0.276460 0.122484
v 2.327919 0.276460 0.176987
v 1.247986 -0.193710 -0.320065
v 1.247986 -0.010563 -0.295701
v 1.247986 0.093273 -0.226320
v 1.247986 0.162655 -0.122484
v 1.247986 0.187018 -0.000000
v 1.247986 0.162655 0.122484
v 1.247986 0.093273 0.226320
v 1.247986 -0.010563 0.295701
v 1.247986 -0.193710 0.320065
v 1.247986 -0.316193 0.295701
v 1.247986 -0.420030 0.226320
v 1.247986 -0.489411 0.122484
v 1.247986 -0.513775 -0.000000
v 1.247986 -0.489411 -0.122484
v 1.247986 -0.420030 -0.226320
v 1.247986 -0.316193 -0.295701
v 1.247987 0.276460 -0.176987
v 1.247986 0.276460 -0.122484
v 1.247986 0.276460 0.122484
v 1.247986 0.276460 0.176987
v 1.629361 -0.010563 -0.295701
v 1.629361 0.093273 -0.226320
v 1.629361 0.162655 -0.122484
v 1.629361 0.187018 -0.000000
v 1.629361 0.162655 0.122484
v 1.629361 0.093273 0.226320
v 1.629361 -0.010563 0.295701
v 1.629361 -0.193710 0.320065
v 1.629361 -0.316193 0.295701
v 1.629361 -0.420030 0.226320
v 1.629361 -0.489411 0.122484
v 1.629361 -0.513775 -0.000000
v 1.629361 -0.489411 -0.122484
v 1.629361 -0.420030 -0.226320
v 1.629361 -0.316193 -0.295701
v 1.629361 0.276460 -0.176987
v 1.629361 0.276460 -0.122484
v 1.629361 0.276460 0.122484
v 1.629361 0.276460 0.176987
v 1.629361 -0.193710 -0.320065
v -0.290910 0.079285 0.119228
v -0.290910 0.195968 0.119228
v -0.290910 0.079285 0.055093
v -0.290910 0.195968 0.055093
v 1.269081 0.079285 0.119228
v 1.269081 0.195968 0.119228
v 1.269081 0.079285 0.055093
v 1.269081 0.195968 0.055093
v 2.446003 0.276460 -0.176987
v 2.594911 0.276460 -0.176987
v 2.594911 0.276460 -0.176987
v 2.594911 0.276460 -0.122483
v 1.092628 0.276460 -0.122484
v 1.092628 0.276460 -0.176987
v 1.092628 0.276460 -0.176987
v 2.594911 0.276460 0.122484
v 2.594911 0.276460 0.176987
v 2.594911 0.276460 0.176987
v 1.092628 0.276460 0.176987
v 1.092628 0.276460 0.176987
v 1.092628 0.276460 0.122484
v 2.446003 0.276460 0.176987
v 2.327919 0.276460 -0.176987
v 2.327919 0.276460 0.176987
v 1.629361 0.276460 -0.176987
v 1.629361 0.276460 0.176987
v 1.247987 0.276460 -0.176987
v 1.247986 0.276460 0.176987
vn -0.0178 -0.0464 -0.9988
vn -0.2435 -0.0069 -0.9699
vn -0.1650 0.3494 -0.9223
vn 0.0079 0.3589 -0.9333
vn -0.2230 0.5370 -0.8136
vn -0.0000 0.4133 -0.9106
vn 0.4976 0.8673 0.0141
vn 0.2003 0.5455 -0.8138
vn 1.0000 -0.0000 -0.0000
vn -0.0000 0.7730 0.6344
vn -0.5033 0.8640 0.0106
vn -0.0388 0.9992 -0.0000
vn -0.0000 1.0000 -0.0000
vn -0.5033 0.8640 -0.0106
vn -0.0000 0.7730 -0.6344
vn -0.0000 0.4133 0.9106
vn 0.2003 0.5455 0.8138
vn -0.0000 0.2600 0.9656
vn -0.2230 0.5370 0.8136
vn -0.1650 0.3494 0.9223
vn 0.0079 0.3589 0.9333
vn -0.2435 -0.0069 0.9699
vn -0.0178 -0.0464 0.9988
vn -0.3559 -0.3498 0.8666
vn -0.0805 -0.4001 0.9129
vn -0.4520 -0.6251 0.6364
vn -0.1359 -0.7109 0.6901
vn -0.5100 -0.7929 0.3335
vn -0.1697 -0.9134 0.3701
vn -0.5291 -0.8485 -0.0000
vn -0.1810 -0.9835 -0.0000
vn -0.5100 -0.7929 -0.3335
vn -0.1697 -0.9134 -0.3701
vn -0.4520 -0.6251 -0.6364
vn -0.1359 -0.7109 -0.6901
vn -0.6941 0.7199 -0.0000
vn -0.7048 0.6610 0.2575
vn -0.3559 -0.3498 -0.8666
vn -0.0805 -0.4001 -0.9129
vn 0.8937 -0.3241 0.3104
vn 0.9016 -0.4015 0.1612
vn 0.8493 -0.4852 0.2082
vn 0.8357 -0.3791 0.3974
vn -0.7770 0.2689 -0.5691
vn -0.8213 0.0289 -0.5697
vn -0.8583 -0.1748 -0.4824
vn -0.8838 -0.3196 -0.3416
vn -0.8982 -0.4032 -0.1753
vn -0.9027 -0.4302 -0.0000
vn -0.8982 -0.4032 0.1753
vn -0.8838 -0.3196 0.3416
vn -0.8583 -0.1748 0.4824
vn -0.8213 0.0289 0.5697
vn -0.7770 0.2689 0.5691
vn -0.7347 0.4978 0.4609
vn -0.7048 0.6610 -0.2575
vn -0.7347 0.4978 -0.4609
vn -0.0000 0.7071 0.7071
vn -0.0000 0.7071 -0.7071
vn 0.4976 0.8673 -0.0141
vn -1.0000 -0.0000 -0.0000
vn -0.0000 0.2600 -0.9656
vn 0.7840 0.0214 -0.6205
vn 0.7518 0.2719 -0.6007
vn 0.7228 0.5007 -0.4763
vn 0.7027 0.6609 -0.2633
vn 0.6956 0.7184 -0.0000
vn 0.7027 0.6609 0.2633
vn 0.7228 0.5007 0.4763
vn 0.7518 0.2719 0.6007
vn 0.7840 0.0214 0.6205
vn 0.8133 -0.2057 0.5443
vn 0.8538 -0.5206 -0.0000
vn 0.8493 -0.4852 -0.2082
vn 0.8357 -0.3791 -0.3974
vn 0.8133 -0.2057 -0.5443
vn 0.2756 -0.3007 -0.9130
vn 0.1791 -0.0082 -0.9838
vn 0.0408 0.9992 -0.0000
vn 0.1791 -0.0082 0.9838
vn 0.2756 -0.3007 0.9130
vn 0.9016 -0.4015 -0.1612
vn 0.8937 -0.3241 -0.3104
vn 0.1272 0.3665 -0.9217
vn 0.1272 0.3665 0.9217
vn 0.9043 -0.4269 -0.0000
vn -0.0863 -0.3345 -0.9384
vn -0.0012 0.0119 -0.9999
vn 0.6865 -0.3155 0.6551
vn 0.6673 -0.5264 0.5269
vn -0.0863 -0.3345 0.9384
vn -0.3711 -0.4400 0.8177
vn 0.6669 -0.6884 0.2853
vn 0.6668 -0.7452 -0.0000
vn -0.5721 -0.5532 0.6055
vn -0.5171 -0.6230 0.5870
vn 0.6669 -0.6884 -0.2853
vn 0.6673 -0.5264 -0.5269
vn -0.7190 -0.6383 0.2749
vn -0.5549 -0.7726 0.3086
vn -0.0012 0.0119 0.9999
vn -0.0000 0.3827 0.9239
vn -0.0000 0.3827 -0.9239
vn -0.5171 -0.6229 -0.5870
vn -0.3711 -0.4400 -0.8177
vn 0.6865 -0.3155 -0.6551
vn -0.5549 -0.7726 -0.3086
vn -0.5638 -0.8259 -0.0000
vn -0.5721 -0.5532 -0.6055
vn -0.7190 -0.6383 -0.2749
vn -0.7457 -0.6663 -0.0000
vn -0.0295 -0.3537 -0.9349
vn -0.0044 0.0015 -1.0000
vn -0.0813 -0.6918 -0.7175
vn -0.1081 -0.9147 -0.3895
vn -0.1173 -0.9931 -0.0000
vn -0.1081 -0.9147 0.3895
vn -0.0813 -0.6918 0.7175
vn -0.0295 -0.3537 0.9349
vn -0.0044 0.0015 1.0000
vn -0.0017 0.3739 0.9275
vn -0.0017 0.3739 -0.9275
vn 0.0170 -0.3872 -0.9219
vn 0.0029 -0.0304 -0.9995
vn 0.0308 -0.7094 -0.7041
vn 0.0399 -0.9239 -0.3805
vn 0.0431 -0.9991 -0.0000
vn 0.0399 -0.9239 0.3805
vn 0.0308 -0.7094 0.7041
vn 0.0170 -0.3872 0.9219
vn 0.0029 -0.0304 0.9995
vn -0.0018 0.3589 0.9334
vn -0.0018 0.3589 -0.9334
vn -0.0000 -0.0000 -1.0000
vn -0.0000 -0.0000 1.0000
vn -0.0000 -1.0000 -0.0000
vt 1.000000 0.948292
vt 1.000000 1.000000
vt 0.937500 1.000000
vt 0.937500 0.948292
vt 0.875000 1.000000
vt 0.875000 0.948292
vt 0.971731 0.341844
vt 0.919706 0.419706
vt 0.812500 0.948292
vt 0.812500 1.000000
vt 0.750000 1.000000
vt 0.750000 0.948292
vt 0.687500 1.000000
vt 0.687500 0.948292
vt 0.625000 0.549561
vt 0.625000 0.500000
vt 0.625000 0.948292
vt 0.625000 1.000000
vt 0.562500 1.000000
vt 0.562500 0.948292
vt 0.500000 1.000000
vt 0.500000 0.948292
vt 0.437500 1.000000
vt 0.437500 0.948292
vt 0.375000 1.000000
vt 0.375000 0.948292
vt 0.312500 1.000000
vt 0.312500 0.948292
vt 0.250000 1.000000
vt 0.250000 0.948293
vt 0.187500 1.000000
vt 0.187500 0.948292
vt 0.125000 1.000000
vt 0.125000 0.948292
vt 0.062500 1.000000
vt 0.062500 0.948292
vt 0.000000 1.000000
vt 0.000000 0.948292
vt 0.375000 0.500000
vt 0.312500 0.500000
vt 0.341844 0.471731
vt 0.250000 0.490000
vt 0.158156 0.471731
vt 0.080294 0.419706
vt 0.028269 0.341844
vt 0.010000 0.250000
vt 0.028269 0.158156
vt 0.080294 0.080294
vt 0.158156 0.028269
vt 0.250000 0.010000
vt 0.341844 0.028269
vt 0.419706 0.080294
vt 0.471731 0.158156
vt 0.490000 0.250000
vt 0.471731 0.341844
vt 0.419706 0.419706
vt 0.812500 0.948292
vt 0.687500 0.948293
vt 0.625000 0.948292
vt 0.919706 0.080294
vt 0.971731 0.158156
vt 0.812500 0.549561
vt 0.812500 0.500000
vt 0.750000 0.490000
vt 0.841844 0.471731
vt 0.990000 0.250000
vt 0.841844 0.028269
vt 0.750000 0.010000
vt 0.658156 0.028269
vt 0.580294 0.080294
vt 0.528269 0.158156
vt 0.510000 0.250000
vt 0.528269 0.341844
vt 0.580294 0.419706
vt 0.658156 0.471731
vt 0.062500 0.500000
vt 0.000000 0.500000
vt 0.750000 0.500000
vt 0.500000 0.500000
vt 0.437500 0.500000
vt 0.187500 0.500000
vt 0.125000 0.500000
vt 0.937500 0.500000
vt 0.875000 0.500000
vt 0.562500 0.500000
vt 0.250000 0.500000
vt 0.687500 0.500000
vt 1.000000 0.500000
vt 0.812500 0.588862
vt 0.687500 0.549561
vt 0.875000 0.549561
vt 0.875000 0.549561
vt 0.062500 0.549561
vt 0.000000 0.549561
vt 0.437500 0.549561
vt 0.375000 0.549561
vt 0.312500 0.549561
vt 0.500000 0.549561
vt 0.562500 0.549561
vt 0.625000 0.588862
vt 0.750000 0.549561
vt 0.937500 0.549561
vt 1.000000 0.549561
vt 0.125000 0.549561
vt 0.187500 0.549561
vt 0.250000 0.549561
vt 0.625000 0.821361
vt 0.625000 0.821361
vt 0.812500 0.821361
vt 0.812500 0.821361
vt 0.687500 0.588862
vt 0.875000 0.588862
vt 0.875000 0.588862
vt 0.062500 0.588862
vt 0.000000 0.588862
vt 0.125000 0.588862
vt 0.187500 0.588862
vt 0.250000 0.588862
vt 0.312500 0.588862
vt 0.375000 0.588862
vt 0.437500 0.588862
vt 0.500000 0.588862
vt 0.562500 0.588862
vt 0.750000 0.588862
vt 0.937500 0.588862
vt 1.000000 0.588862
vt 0.687500 0.821361
vt 0.875000 0.821361
vt 0.062500 0.821361
vt 0.000000 0.821361
vt 0.125000 0.821361
vt 0.187500 0.821361
vt 0.250000 0.821361
vt 0.312500 0.821361
vt 0.375000 0.821361
vt 0.437500 0.821361
vt 0.500000 0.821361
vt 0.562500 0.821361
vt 0.750000 0.821361
vt 0.937500 0.821361
vt 1.000000 0.821361
vt 0.375000 0.000000
vt 0.625000 0.000000
vt 0.625000 0.250000
vt 0.375000 0.250000
vt 0.625000 0.750000
vt 0.375000 0.750000
vt 0.125000 0.750000
vt 0.875000 0.750000
s 1
usemtl Material.001
f 127/1/1 2/2/2 4/3/3 128/4/4
f 128/4/4 4/3/3 6/5/5 129/6/6
f 7/7/7 5/8/8 177/8/9 178/7/9
f 130/9/10 8/10/11 10/11/12 131/12/13
f 131/12/13 10/11/12 12/13/14 132/14/15
f 79/15/16 13/16/17 184/16/18 188/15/18
f 133/17/16 14/18/19 16/19/20 134/20/21
f 134/20/21 16/19/20 18/21/22 135/22/23
f 135/22/23 18/21/22 20/23/24 136/24/25
f 136/24/25 20/23/24 22/25/26 137/26/27
f 137/26/27 22/25/26 24/27/28 138/28/29
f 138/28/29 24/27/28 26/29/30 139/30/31
f 139/30/31 26/29/30 28/31/32 140/32/33
f 140/32/33 28/31/32 30/33/34 141/34/35
f 12/13/14 10/11/12 37/11/36 38/13/37
f 141/34/35 30/33/34 32/35/38 142/36/39
f 142/36/39 32/35/38 2/37/2 127/38/1
f 21/39/40 23/40/41 68/40/42 67/39/43
f 33/41/44 34/42/45 48/43/46 47/44/47 46/45/48 45/46/49 44/47/50 43/48/51 42/49/52 41/50/53 40/51/54 39/52/55 38/53/37 37/54/36 36/55/56 35/56/57
f 22/25/26 20/23/24 42/23/52 43/25/51
f 32/35/38 30/33/34 47/33/47 48/35/46
f 8/10/11 6/5/5 35/5/57 36/10/56
f 18/21/22 16/19/20 40/19/54 41/21/53
f 4/3/3 2/2/2 34/2/45 33/3/44
f 28/31/32 26/29/30 45/29/49 46/31/48
f 14/18/19 12/13/14 38/13/37 39/18/55
f 24/27/28 22/25/26 43/25/51 44/27/50
f 2/37/2 32/35/38 48/35/46 34/37/45
f 10/11/12 8/10/11 36/10/56 37/11/36
f 20/23/24 18/21/22 41/21/53 42/23/52
f 30/33/34 28/31/32 46/31/48 47/33/47
f 6/5/5 4/3/3 33/3/44 35/5/57
f 16/19/20 14/18/19 39/18/55 40/19/54
f 26/29/30 24/27/28 44/27/50 45/29/49
f 193/6/13 180/5/13 179/10/58 144/57/58
f 145/58/59 187/13/59 185/18/13 194/59/13
f 13/60/17 11/61/60 54/61/9 183/60/9
f 6/5/5 8/10/11 52/10/61 181/5/61
f 12/13/14 14/18/19 186/18/61 53/13/61
f 129/6/6 6/5/5 49/5/62 143/6/62
f 132/14/15 12/13/14 187/13/59 145/58/59
f 76/62/10 7/63/7 51/63/58 90/62/58
f 57/64/63 58/65/64 59/8/65 60/7/66 61/66/67 62/61/68 63/60/69 64/67/70 65/68/71 66/69/72 67/70/43 68/71/42 69/72/73 70/73/74 71/74/75 72/75/76
f 31/76/77 1/77/78 57/77/63 72/76/76
f 7/63/7 9/78/79 61/78/67 60/63/66
f 17/79/80 19/80/81 66/80/72 65/79/71
f 27/81/82 29/82/83 71/82/75 70/81/74
f 3/83/84 5/84/8 59/84/65 58/83/64
f 13/16/17 15/85/85 64/85/70 63/16/69
f 23/40/41 25/86/86 69/86/73 68/40/42
f 9/78/79 11/87/60 62/87/68 61/78/67
f 19/80/81 21/39/40 67/39/43 66/80/72
f 29/82/83 31/76/77 72/76/76 71/82/75
f 5/8/8 7/7/7 60/7/66 59/8/65
f 15/85/85 17/79/80 65/79/71 64/85/70
f 1/88/78 3/83/84 58/83/64 57/88/63
f 25/86/86 27/81/82 70/81/74 69/86/73
f 11/61/60 13/60/17 63/60/69 62/61/68
f 110/89/10 76/62/10 90/62/58 124/89/58
f 11/87/60 78/90/15 91/90/59 182/87/59
f 5/84/8 75/91/6 175/92/62 176/84/62
f 182/87/59 91/90/59 92/15/13 55/16/13
f 50/84/13 89/92/13 90/62/58 51/63/58
f 31/76/77 88/93/87 73/94/88 1/77/78
f 21/39/40 19/80/81 94/80/89 95/39/90
f 19/80/81 82/95/91 93/95/92 94/80/89
f 25/86/86 23/40/41 97/40/93 99/86/94
f 82/95/91 83/96/95 96/96/96 93/95/92
f 29/82/83 27/81/82 101/81/97 103/82/98
f 83/96/95 84/97/99 98/97/100 96/96/96
f 17/79/80 81/98/101 82/95/91 19/80/81
f 15/85/85 80/99/102 81/98/101 17/79/80
f 13/16/17 79/15/16 80/99/102 15/85/85
f 113/100/16 79/15/16 188/15/18 190/100/18
f 9/78/79 77/101/13 78/90/15 11/87/60
f 7/63/7 76/62/10 77/101/13 9/78/79
f 3/83/84 74/102/103 75/91/6 5/84/8
f 1/88/78 73/103/88 74/102/103 3/83/84
f 103/82/98 104/104/104 106/93/105 105/76/106
f 101/81/97 102/105/107 104/104/104 103/82/98
f 99/86/94 100/106/108 102/105/107 101/81/97
f 97/40/93 98/97/100 100/106/108 99/86/94
f 95/39/90 96/96/96 98/97/100 97/40/93
f 94/80/89 93/95/92 96/96/96 95/39/90
f 31/76/77 29/82/83 103/82/98 105/76/106
f 87/104/109 88/93/87 106/93/105 104/104/104
f 86/105/110 87/104/109 104/104/104 102/105/107
f 27/81/82 25/86/86 99/86/94 101/81/97
f 88/93/87 31/76/77 105/76/106 106/93/105
f 85/106/111 86/105/110 102/105/107 100/106/108
f 23/40/41 21/39/40 95/39/90 97/40/93
f 84/97/99 85/106/111 100/106/108 98/97/100
f 152/107/16 113/100/16 190/100/18 192/108/18
f 149/109/10 110/89/10 124/89/58 163/110/58
f 78/90/15 112/111/15 125/111/59 91/90/59
f 75/91/6 109/112/6 189/113/62 175/92/62
f 91/90/59 125/111/59 126/100/13 92/15/13
f 89/92/13 123/113/13 124/89/58 90/62/58
f 88/93/87 122/114/112 107/115/113 73/94/88
f 87/104/109 121/116/114 122/114/112 88/93/87
f 86/105/110 120/117/115 121/116/114 87/104/109
f 85/106/111 119/118/116 120/117/115 86/105/110
f 84/97/99 118/119/117 119/118/116 85/106/111
f 83/96/95 117/120/118 118/119/117 84/97/99
f 82/95/91 116/121/119 117/120/118 83/96/95
f 81/98/101 115/122/120 116/121/119 82/95/91
f 80/99/102 114/123/121 115/122/120 81/98/101
f 79/15/16 113/100/16 114/123/121 80/99/102
f 77/101/13 111/124/13 112/111/15 78/90/15
f 76/62/10 110/89/10 111/124/13 77/101/13
f 74/102/103 108/125/122 109/112/6 75/91/6
f 73/103/88 107/126/113 108/125/122 74/102/103
f 8/10/11 130/9/10 144/57/58 179/10/58
f 14/18/19 133/17/16 146/59/18 56/18/18
f 151/127/15 132/14/15 145/58/59 164/127/59
f 148/128/6 129/6/6 143/6/62 162/128/62
f 164/127/59 145/58/59 194/59/13 165/108/13
f 191/128/13 193/6/13 144/57/58 163/110/58
f 161/129/123 142/36/39 127/38/1 166/130/124
f 160/131/125 141/34/35 142/36/39 161/129/123
f 159/132/126 140/32/33 141/34/35 160/131/125
f 158/133/127 139/30/31 140/32/33 159/132/126
f 157/134/128 138/28/29 139/30/31 158/133/127
f 156/135/129 137/26/27 138/28/29 157/134/128
f 155/136/130 136/24/25 137/26/27 156/135/129
f 154/137/131 135/22/23 136/24/25 155/136/130
f 153/138/132 134/20/21 135/22/23 154/137/131
f 152/107/16 133/17/16 134/20/21 153/138/132
f 150/139/13 131/12/13 132/14/15 151/127/15
f 149/109/10 130/9/10 131/12/13 150/139/13
f 147/140/133 128/4/4 129/6/6 148/128/6
f 166/141/124 127/1/1 128/4/4 147/140/133
f 107/126/113 166/141/124 147/140/133 108/125/122
f 108/125/122 147/140/133 148/128/6 109/112/6
f 110/89/10 149/109/10 150/139/13 111/124/13
f 111/124/13 150/139/13 151/127/15 112/111/15
f 113/100/16 152/107/16 153/138/132 114/123/121
f 114/123/121 153/138/132 154/137/131 115/122/120
f 115/122/120 154/137/131 155/136/130 116/121/119
f 116/121/119 155/136/130 156/135/129 117/120/118
f 117/120/118 156/135/129 157/134/128 118/119/117
f 118/119/117 157/134/128 158/133/127 119/118/116
f 119/118/116 158/133/127 159/132/126 120/117/115
f 120/117/115 159/132/126 160/131/125 121/116/114
f 121/116/114 160/131/125 161/129/123 122/114/112
f 122/114/112 161/129/123 166/130/124 107/115/113
f 123/113/13 191/128/13 163/110/58 124/89/58
f 125/111/59 164/127/59 165/108/13 126/100/13
f 109/112/6 148/128/6 162/128/62 189/113/62
f 112/111/15 151/127/15 164/127/59 125/111/59
f 130/9/10 149/109/10 163/110/58 144/57/58
f 133/17/16 152/107/16 192/108/18 146/59/18
s 0
f 167/142/61 168/143/61 170/144/61 169/145/61
f 169/145/134 170/144/134 174/16/134 173/39/134
f 173/39/9 174/16/9 172/146/9 171/147/9
f 171/147/135 172/146/135 168/18/135 167/25/135
f 169/82/136 173/39/136 171/147/136 167/148/136
f 174/16/13 170/84/13 168/149/13 172/146/13
