# Blender 4.0.2
# www.blender.org
mtllib Corridor1.mtl
o Cube.002
v -3.000000 -0.754304 3.965514
v -3.000000 0.000000 3.965514
v -3.000000 -0.754304 0.000000
v -3.000000 0.000000 0.000000
v 3.000000 -0.754304 3.965514
v 3.000000 0.000000 3.965514
v 3.000000 -0.754304 0.000000
v 3.000000 0.000000 0.000000
v -3.000000 -0.100000 0.600000
v -3.000000 4.000000 0.600000
v -3.000000 -0.100000 0.000000
v -3.000000 4.000000 0.000000
v -1.000000 -0.100000 0.600000
v -1.000000 4.000000 0.600000
v -1.000000 -0.100000 0.000000
v -1.000000 4.000000 0.000000
v -3.000000 2.975000 0.600000
v -3.000000 2.975000 0.000000
v -1.000000 2.975000 0.000000
v -1.000000 2.975000 0.600000
v 3.000000 4.000000 0.000000
v 3.000000 4.000000 0.600000
v 3.000000 2.975000 0.000000
v 3.000000 2.975000 0.600000
v 1.000000 4.000000 0.000000
v 1.000000 2.975000 0.000000
v 1.000000 4.000000 0.600000
v 1.000000 2.975000 0.600000
v 3.000000 -0.025000 0.000000
v 3.000000 -0.025000 0.600000
v 1.000000 -0.025000 0.000000
v 1.000000 -0.025000 0.600000
v 0.988664 -0.754304 0.000000
v 0.988664 0.000000 0.000000
v 0.988664 -0.754304 3.965514
v 0.988664 0.000000 3.965514
v -3.000000 -0.754304 8.177891
v 0.988664 -0.754304 8.177891
v 3.000000 -0.755290 4.798324
v 3.000000 -0.379246 4.798324
v -0.932921 -0.755290 4.798324
v -0.932921 -0.379246 4.798324
v 3.000000 -0.379246 3.715428
v -0.932921 -0.379246 3.715428
v -3.000000 -1.003837 0.000000
v -3.000000 -1.003837 3.965514
v 0.988664 -1.003837 0.000000
v 3.000000 -1.003837 3.965514
v 3.000000 -1.003837 0.000000
v 0.988664 -1.003837 3.965514
v -3.000000 -1.003837 8.177891
v 0.988664 -1.003837 8.177891
v 3.000000 -0.754304 8.138953
v 3.000000 -1.003837 8.138953
v 0.988664 -1.003837 11.166437
v 0.988664 -0.754304 11.166437
v -3.000000 -0.754304 11.166437
v -3.000000 -1.003837 11.166437
v 3.000000 -1.003837 11.127500
v 3.000000 -0.754304 11.127500
v 0.988664 -1.003837 13.599735
v 0.988664 -0.754304 13.599735
v -3.000000 -0.754304 13.599735
v -3.000000 -1.003837 13.599735
v 4.732430 -1.003837 13.560798
v 4.732430 -0.754304 13.560798
v 0.988664 -1.003837 23.169617
v 0.988664 -0.754304 23.169617
v -3.000000 -0.754304 23.169617
v -3.000000 -1.003837 23.169617
v 4.732430 -1.003837 23.130680
v 4.732430 -0.754304 23.130680
v -3.174178 -0.876042 23.299099
v -3.174178 4.000000 23.299099
v -3.174178 -0.876042 22.699099
v -3.174178 4.000000 22.699099
v -1.000000 -0.876042 23.299099
v -1.000000 4.000000 23.299099
v -1.000000 -0.876042 22.699099
v -1.000000 4.000000 22.699099
v -3.174178 2.198957 23.299099
v -3.174178 2.198957 22.699099
v -1.000000 2.198957 22.699099
v -1.000000 2.198957 23.299099
v 4.987720 4.007839 22.699099
v 4.987720 4.007839 23.299099
v 4.987720 2.198957 22.699099
v 4.987720 2.198957 23.299099
v 1.000000 4.007839 22.699099
v 1.000000 2.198957 22.699099
v 1.000000 4.007839 23.299099
v 1.000000 2.198957 23.299099
v 4.987720 -0.801043 22.699099
v 4.987720 -0.801043 23.299099
v 1.000000 -0.801043 22.699099
v 1.000000 -0.801043 23.299099
v -3.428808 -1.000000 22.993532
v -3.428808 3.999022 22.993532
v -3.428808 -1.000000 0.128789
v -3.428808 3.999022 0.128789
v -2.892409 -1.000000 22.993532
v -2.892409 3.999022 22.993532
v -2.892409 -1.000000 0.128789
v -2.892409 3.999022 0.128789
v 2.955390 -0.754304 3.965514
v 2.955390 -0.754304 0.000000
v 2.955390 -1.003837 3.965514
v 2.955390 -1.003837 0.000000
v 2.955390 -0.754304 8.138953
v 2.955390 -1.003837 8.138953
v 2.955390 -1.003837 11.127500
v 2.955390 -0.754304 11.127500
v 4.687820 -1.003837 13.560798
v 4.687820 -0.754304 13.560798
v 4.687820 -1.003837 23.130680
v 4.687820 -0.754304 23.130680
v 3.454334 -0.754304 3.965514
v 3.454334 -0.754304 0.000000
v 3.454334 -1.003837 8.138953
v 3.454334 -1.003837 11.127500
v 3.454334 -1.003837 3.965514
v 3.454334 -1.003837 0.000000
v 3.454334 -0.754304 8.138953
v 3.454334 -0.754304 11.127500
v 5.186764 -1.003837 13.560798
v 5.186764 -0.754304 13.560798
v 5.186764 -1.003837 23.130680
v 5.186764 -0.754304 23.130680
v 2.955390 4.035449 3.965514
v 2.955390 4.035449 0.000000
v 2.955390 4.035449 8.138953
v 2.955390 4.035449 11.127500
v 4.687820 4.035449 13.560798
v 4.687820 4.035449 23.130680
v 3.454334 4.035449 3.965514
v 3.454334 4.035449 0.000000
v 3.454334 4.035449 8.138953
v 3.454334 4.035449 11.127500
v 5.186764 4.035449 13.560798
v 5.186764 4.035449 23.130680
v -3.106532 3.949621 23.090460
v -3.106532 4.322501 23.090460
v -3.106532 3.949621 13.523900
v -3.106532 4.322501 13.523900
v 4.969034 3.949621 23.090460
v 4.969034 4.322501 23.090460
v 4.969034 3.949621 13.523900
v 4.969034 4.322501 13.523900
v -3.106532 4.322501 11.040565
v -3.106532 3.949621 11.040565
v 3.218288 3.949621 11.040565
v 3.218288 4.322501 11.040565
v -3.106532 4.322501 0.192413
v -3.106532 3.949621 0.192413
v 3.218288 3.949621 0.192413
v 3.218288 4.322501 0.192413
v 0.870111 -0.131214 4.352723
v 0.870111 1.273613 4.352723
v 0.870111 -0.131214 4.276438
v 0.870111 1.273613 4.276438
v 0.946397 -0.131214 4.352723
v 0.946397 1.273613 4.352723
v 0.946397 -0.131214 4.276438
v 0.946397 1.273613 4.276438
v 0.870111 -0.682085 7.402874
v 0.870111 0.722743 7.402874
v 0.870111 -0.682085 7.326589
v 0.870111 0.722743 7.326589
v 0.946397 -0.682085 7.402874
v 0.946397 0.722743 7.402874
v 0.946397 -0.682085 7.326589
v 0.946397 0.722743 7.326589
v 0.870111 0.687025 7.716467
v 0.870111 1.333887 4.173019
v 0.870111 0.612215 7.701536
v 0.870111 1.259077 4.158089
v 0.946397 0.687025 7.716467
v 0.946397 1.333887 4.173019
v 0.946397 0.612215 7.701536
v 0.946397 1.259077 4.158089
v 0.870111 1.319707 4.080276
v 0.870111 1.244267 4.091608
v 0.946397 1.244267 4.091608
v 0.946397 1.319707 4.080276
v 0.870111 1.238247 3.996296
v 0.870111 1.193339 4.057963
v 0.946397 1.193339 4.057963
v 0.946397 1.238247 3.996296
v 0.870111 1.127411 3.981781
v 0.870111 1.133184 4.057848
v 0.946397 1.133184 4.057848
v 0.946397 1.127411 3.981781
v 0.870111 0.577321 7.751475
v 0.870111 0.620191 7.814576
v 0.946397 0.577321 7.751475
v 0.946397 0.620191 7.814576
v 0.870111 0.515909 7.764109
v 0.870111 0.522422 7.840117
v 0.946397 0.515909 7.764109
v 0.946397 0.522422 7.840117
vn -1.0000 -0.0000 -0.0000
vn -0.0000 -0.0000 -1.0000
vn 1.0000 -0.0000 -0.0000
vn -0.0000 1.0000 -0.0000
vn -0.0000 -0.0000 1.0000
vn -0.0000 -1.0000 -0.0000
vn -0.0000 0.9843 0.1763
vn 0.8146 -0.0000 -0.5800
vn 0.0104 -0.0000 0.9999
vn -0.0039 1.0000 -0.0000
vn -0.8146 -0.0000 0.5800
vn 0.8173 -0.0000 -0.5762
vn -0.0000 -0.9837 -0.1796
vn -0.0000 0.9837 0.1796
vn -0.0000 0.9885 -0.1511
vn -0.0000 -0.9761 0.2174
vn -0.0000 0.1299 -0.9915
vn -0.0000 0.7178 -0.6963
vn -0.0000 -0.5512 0.8344
vn -0.0000 -0.9971 0.0757
vn -0.0000 -0.0019 1.0000
vn -0.0000 0.8265 0.5630
vn -0.0000 -0.8197 -0.5728
vn -0.0000 -0.9963 0.0854
vn -0.0000 0.2528 0.9675
vn -0.0000 -0.2015 -0.9795
vt 0.375000 0.000000
vt 0.625000 0.000000
vt 0.625000 0.250000
vt 0.375000 0.250000
vt 0.375000 0.336128
vt 0.625000 0.336128
vt 0.625000 0.500000
vt 0.375000 0.500000
vt 0.625000 0.750000
vt 0.375000 0.750000
vt 0.375000 0.913872
vt 0.625000 0.913872
vt 0.788872 0.500000
vt 0.875000 0.500000
vt 0.875000 0.750000
vt 0.788872 0.750000
vt 0.562500 0.000000
vt 0.562500 0.250000
vt 0.562500 0.500000
vt 0.562500 0.750000
vt 0.625000 1.000000
vt 0.562500 1.000000
vt 0.125000 0.500000
vt 0.125000 0.750000
vt 0.375000 1.000000
vt 0.211128 0.750000
vt 0.211128 0.500000
s 0
f 1/1/1 2/2/1 4/3/1 3/4/1
f 33/5/2 34/6/2 8/7/2 7/8/2
f 7/8/3 8/7/3 6/9/3 5/10/3
f 35/11/3 36/12/3 38/11/3
f 34/13/4 4/14/4 2/15/4 36/16/4
f 17/17/1 10/2/1 12/3/1 18/18/1
f 18/18/2 12/3/2 16/7/2 19/19/2
f 26/19/2 25/7/2 21/7/2 23/19/2
f 20/20/5 14/9/5 10/21/5 17/22/5
f 11/23/6 15/8/6 13/10/6 9/24/6
f 16/7/4 12/14/4 10/15/4 14/9/4
f 13/10/5 20/20/5 17/22/5 9/25/5
f 15/8/3 19/19/3 20/20/3 13/10/3
f 11/4/2 18/18/2 19/19/2 15/8/2
f 9/1/1 17/17/1 18/18/1 11/4/1
f 23/19/3 21/7/3 22/9/3 24/20/3
f 25/7/4 27/9/4 22/9/4 21/7/4
f 28/20/1 26/19/1 31/19/1 32/20/1
f 27/9/5 28/20/5 24/20/5 22/9/5
f 14/9/5 20/20/5 28/20/5 27/9/5
f 20/20/6 19/19/6 26/19/6 28/20/6
f 16/7/4 14/9/4 27/9/4 25/7/4
f 19/19/2 16/7/2 25/7/2 26/19/2
f 32/20/6 31/19/6 29/19/6 30/20/6
f 24/20/5 28/20/5 32/20/5 30/20/5
f 26/19/2 23/19/2 29/19/2 31/19/2
f 23/19/3 24/20/3 30/20/3 29/19/3
f 8/7/4 34/13/4 36/16/4 6/9/4
f 33/5/2 7/8/2 49/8/2 47/5/2
f 5/10/5 6/9/5 36/12/5 35/11/5
f 3/4/2 4/3/2 34/6/2 33/5/2
f 51/24/6 52/26/6 55/26/6 58/24/6
f 2/2/1 1/1/1 37/2/1
f 36/16/7 2/15/7 37/15/7 38/16/7
f 39/10/5 40/9/5 42/12/5 41/11/5
f 42/12/4 40/9/4 43/9/4 44/12/4
f 47/27/6 49/8/6 48/10/6 50/26/6
f 45/23/6 47/27/6 50/26/6 46/24/6
f 46/24/6 50/26/6 52/26/6 51/24/6
f 3/4/2 33/5/2 47/5/2 45/4/2
f 37/2/1 1/1/1 46/1/1 51/2/1
f 1/1/1 3/4/1 45/4/1 46/1/1
f 7/8/3 5/10/3 48/10/3 49/8/3
f 48/10/3 5/10/3 53/10/3 54/10/3
f 5/10/4 35/11/4 38/11/4 53/10/4
f 52/16/6 54/10/6 59/10/6 55/16/6
f 48/10/6 54/10/6 52/16/6 50/26/6
f 57/2/1 58/2/1 64/2/1 63/2/1
f 58/24/6 55/26/6 61/26/6 64/24/6
f 54/10/3 53/10/3 60/10/3 59/10/3
f 38/16/4 37/15/4 57/15/4 56/16/4
f 53/10/4 38/11/4 56/11/4 60/10/4
f 37/2/1 51/2/1 58/2/1 57/2/1
f 66/10/4 62/11/4 68/11/4 72/10/4
f 62/16/4 63/15/4 69/15/4 68/16/4
f 55/16/6 59/10/6 65/10/6 61/16/6
f 59/10/8 60/10/8 66/10/8 65/10/8
f 56/16/4 57/15/4 63/15/4 62/16/4
f 60/10/4 56/11/4 62/11/4 66/10/4
f 68/16/5 69/15/5 70/15/5 67/16/5
f 68/11/9 67/16/9 71/10/9 72/10/9
f 64/24/6 61/26/6 67/26/6 70/24/6
f 63/2/1 64/2/1 70/2/1 69/2/1
f 61/16/6 65/10/6 71/10/6 67/16/6
f 65/10/3 66/10/3 72/10/3 71/10/3
f 81/17/1 74/2/1 76/3/1 82/18/1
f 82/18/2 76/3/2 80/7/2 83/19/2
f 90/19/2 89/7/2 85/7/2 87/19/2
f 84/20/5 78/9/5 74/21/5 81/22/5
f 75/23/6 79/8/6 77/10/6 73/24/6
f 80/7/4 76/14/4 74/15/4 78/9/4
f 77/10/5 84/20/5 81/22/5 73/25/5
f 79/8/3 83/19/3 84/20/3 77/10/3
f 75/4/2 82/18/2 83/19/2 79/8/2
f 73/1/1 81/17/1 82/18/1 75/4/1
f 87/19/3 85/7/3 86/9/3 88/20/3
f 89/7/4 91/9/4 86/9/4 85/7/4
f 92/20/1 90/19/1 95/19/1 96/20/1
f 91/9/5 92/20/5 88/20/5 86/9/5
f 78/9/5 84/20/5 92/20/5 91/9/5
f 84/20/6 83/19/6 90/19/6 92/20/6
f 80/7/10 78/9/10 91/9/10 89/7/10
f 83/19/2 80/7/2 89/7/2 90/19/2
f 96/20/6 95/19/6 93/19/6 94/20/6
f 88/20/5 92/20/5 96/20/5 94/20/5
f 90/19/2 87/19/2 93/19/2 95/19/2
f 87/19/3 88/20/3 94/20/3 93/19/3
f 97/1/1 98/2/1 100/3/1 99/4/1
f 99/4/2 100/3/2 104/7/2 103/8/2
f 103/8/3 104/7/3 102/9/3 101/10/3
f 101/10/5 102/9/5 98/21/5 97/25/5
f 99/23/6 103/8/6 101/10/6 97/24/6
f 104/7/4 100/14/4 98/15/4 102/9/4
f 106/8/1 108/8/1 107/10/1 105/10/1
f 107/10/1 110/10/1 109/10/1 105/10/1
f 110/10/1 111/10/1 112/10/1 109/10/1
f 111/10/11 113/10/11 114/10/11 112/10/11
f 113/10/1 115/10/1 116/10/1 114/10/1
f 118/8/3 117/10/3 121/10/3 122/8/3
f 121/10/3 117/10/3 123/10/3 119/10/3
f 119/10/3 123/10/3 124/10/3 120/10/3
f 120/10/8 124/10/8 126/10/8 125/10/8
f 125/10/3 126/10/3 128/10/3 127/10/3
f 118/8/2 106/8/2 130/8/2 136/8/2
f 107/10/6 108/8/6 122/8/6 121/10/6
f 117/10/3 118/8/3 136/8/3 135/10/3
f 110/10/6 107/10/6 121/10/6 119/10/6
f 116/10/5 115/10/5 127/10/5 128/10/5
f 108/8/2 106/8/2 118/8/2 122/8/2
f 109/10/1 112/10/1 132/10/1 131/10/1
f 112/10/11 114/10/11 133/10/11 132/10/11
f 116/10/5 128/10/5 140/10/5 134/10/5
f 113/10/6 111/10/6 120/10/6 125/10/6
f 111/10/6 110/10/6 119/10/6 120/10/6
f 115/10/6 113/10/6 125/10/6 127/10/6
f 132/10/4 133/10/4 139/10/4 138/10/4
f 131/10/4 132/10/4 138/10/4 137/10/4
f 130/8/4 129/10/4 135/10/4 136/8/4
f 129/10/4 131/10/4 137/10/4 135/10/4
f 133/10/4 134/10/4 140/10/4 139/10/4
f 123/10/3 117/10/3 135/10/3 137/10/3
f 128/10/3 126/10/3 139/10/3 140/10/3
f 106/8/1 105/10/1 129/10/1 130/8/1
f 105/10/1 109/10/1 131/10/1 129/10/1
f 114/10/1 116/10/1 134/10/1 133/10/1
f 126/10/8 124/10/8 138/10/8 139/10/8
f 124/10/3 123/10/3 137/10/3 138/10/3
f 141/1/1 142/2/1 144/3/1 143/4/1
f 143/4/1 144/3/1 149/3/1 150/4/1
f 147/8/3 148/7/3 146/9/3 145/10/3
f 145/10/5 146/9/5 142/21/5 141/25/5
f 143/23/6 147/8/6 145/10/6 141/24/6
f 148/7/4 144/14/4 142/15/4 146/9/4
f 149/14/4 152/7/4 156/7/4 153/14/4
f 148/7/12 147/8/12 151/8/12 152/7/12
f 147/8/6 143/23/6 150/23/6 151/8/6
f 144/14/4 148/7/4 152/7/4 149/14/4
f 154/4/2 153/3/2 156/7/2 155/8/2
f 150/4/1 149/3/1 153/3/1 154/4/1
f 152/7/3 151/8/3 155/8/3 156/7/3
f 151/8/6 150/23/6 154/23/6 155/8/6
f 157/1/1 158/2/1 160/3/1 159/4/1
f 159/4/2 160/3/2 164/7/2 163/8/2
f 163/8/3 164/7/3 162/9/3 161/10/3
f 161/10/5 162/9/5 158/21/5 157/25/5
f 159/23/6 163/8/6 161/10/6 157/24/6
f 164/7/4 160/14/4 158/15/4 162/9/4
f 165/1/1 166/2/1 168/3/1 167/4/1
f 167/4/2 168/3/2 172/7/2 171/8/2
f 171/8/3 172/7/3 170/9/3 169/10/3
f 169/10/5 170/9/5 166/21/5 165/25/5
f 167/23/6 171/8/6 169/10/6 165/24/6
f 172/7/4 168/14/4 166/15/4 170/9/4
f 173/1/1 174/2/1 176/3/1 175/4/1
f 175/4/13 176/3/13 180/7/13 179/8/13
f 179/8/3 180/7/3 178/9/3 177/10/3
f 177/10/14 178/9/14 174/21/14 173/25/14
f 179/8/3 177/10/3 196/10/3 195/8/3
f 178/9/3 180/7/3 183/7/3 184/9/3
f 184/9/3 183/7/3 187/7/3 188/9/3
f 176/3/1 174/2/1 181/2/1 182/3/1
f 174/21/15 178/9/15 184/9/15 181/21/15
f 180/7/16 176/3/16 182/3/16 183/7/16
f 185/21/17 188/9/17 192/9/17 189/21/17
f 182/3/1 181/2/1 185/2/1 186/3/1
f 181/21/18 184/9/18 188/9/18 185/21/18
f 183/7/19 182/3/19 186/3/19 187/7/19
f 191/7/20 190/14/20 189/15/20 192/9/20
f 187/7/21 186/3/21 190/3/21 191/7/21
f 188/9/3 187/7/3 191/7/3 192/9/3
f 186/3/1 185/2/1 189/2/1 190/3/1
f 195/8/3 196/10/3 200/10/3 199/8/3
f 177/10/22 173/25/22 194/25/22 196/10/22
f 175/4/23 179/8/23 195/8/23 193/4/23
f 173/1/1 175/4/1 193/4/1 194/1/1
f 197/23/24 199/8/24 200/10/24 198/24/24
f 194/1/1 193/4/1 197/4/1 198/1/1
f 196/10/25 194/25/25 198/25/25 200/10/25
f 193/4/26 195/8/26 199/8/26 197/4/26
