# Blender 4.0.2
# www.blender.org
mtllib canofcoke.mtl
o Plane
v -0.413393 1.782027 0.259935
v -0.413393 1.782027 -0.259935
v -0.525880 1.782027 0.000000
v 0.243313 1.782027 0.000000
v -0.382297 1.782027 0.000000
v -0.492015 1.782027 0.165734
v 0.170921 1.782027 0.165734
v -0.348432 1.782027 0.165734
v 0.170921 1.782027 -0.165734
v -0.348432 1.782027 -0.165734
v -0.492015 1.782027 -0.165734
v -0.106241 1.782027 0.258041
v -0.106241 1.782027 -0.258041
v -0.106241 1.782027 -0.165734
v -0.106241 1.782027 0.165734
v -0.022006 1.782027 0.258041
v -0.022006 1.782027 -0.258041
v -0.022006 1.782027 -0.165734
v -0.022006 1.782027 0.165734
v 0.076983 1.782027 0.258041
v 0.068470 1.782027 -0.258041
v 0.139725 1.782027 0.000000
v 0.086627 1.782027 0.136758
v 0.086627 1.782027 -0.136758
v -0.413393 1.853041 0.259935
v -0.413393 1.853041 -0.259935
v -0.525880 1.853041 0.000000
v 0.243313 1.853041 0.000000
v -0.382297 1.853041 0.000000
v -0.492015 1.853041 0.165734
v 0.170921 1.853041 0.165734
v -0.348432 1.853041 0.165734
v 0.170921 1.853041 -0.165734
v -0.348432 1.853041 -0.165734
v -0.492015 1.853041 -0.165734
v -0.106241 1.853041 0.258041
v -0.106241 1.853041 -0.258041
v -0.106241 1.853041 -0.165734
v -0.106241 1.853041 0.165734
v -0.022006 1.853041 0.258041
v -0.022006 1.853041 -0.258041
v -0.022006 1.853041 -0.165734
v -0.022006 1.853041 0.165734
v 0.076983 1.853041 0.258041
v 0.068470 1.853041 -0.258041
v 0.139725 1.853041 0.000000
v 0.086627 1.853041 0.136758
v 0.086627 1.853041 -0.136758
v 0.677171 1.867047 -0.654482
v 0.007928 1.867047 -0.941724
v 0.009697 -1.867047 -1.080676
v 0.776675 -1.867047 -0.751485
v 0.654482 1.867047 0.677171
v 0.941724 1.867047 0.007928
v 1.080676 -1.867047 0.009697
v 0.751485 -1.867047 0.776675
v -0.654482 1.867047 -0.677171
v -0.941724 1.867047 -0.007928
v -1.080676 -1.867047 -0.009697
v -0.751485 -1.867047 -0.776675
v -0.677171 1.867047 0.654482
v -0.007928 1.867047 0.941724
v -0.009697 -1.867047 1.080676
v -0.776675 -1.867047 0.751485
v 0.632646 -2.098362 -0.612127
v 0.007899 -2.098362 -0.880272
v -0.632646 -2.098362 0.612127
v -0.007899 -2.098362 0.880272
v 0.612127 -2.098362 0.632646
v 0.880272 -2.098362 0.007899
v -0.612127 -2.098362 -0.632646
v -0.880272 -2.098362 -0.007899
v 0.009697 1.867047 -1.080676
v 0.776675 1.867047 -0.751485
v -0.009697 1.867047 1.080676
v -0.776675 1.867047 0.751485
v 1.080676 1.867047 0.009697
v 0.751485 1.867047 0.776675
v -1.080676 1.867047 -0.009697
v -0.751485 1.867047 -0.776675
v 0.006793 1.790083 -0.806903
v 0.580224 1.790083 -0.560784
v -0.006793 1.790083 0.806903
v -0.580224 1.790083 0.560784
v 0.806903 1.790083 0.006793
v 0.560784 1.790083 0.580224
v -0.806903 1.790083 -0.006793
v -0.560784 1.790083 -0.580224
v -0.106241 1.782027 -0.165734
v -0.106241 1.782027 -0.165734
v -0.348432 1.782027 -0.165734
v -0.348432 1.782027 -0.165734
v -0.413393 1.782027 0.259935
v -0.492015 1.782027 0.165734
v -0.106241 1.782027 -0.258041
v -0.413393 1.782027 -0.259935
v -0.492015 1.782027 -0.165734
v -0.525880 1.782027 0.000000
v 0.170921 1.782027 0.165734
v 0.243313 1.782027 0.000000
v -0.348432 1.782027 0.165734
v -0.348432 1.782027 0.165734
v -0.382297 1.782027 0.000000
v 0.076983 1.782027 0.258041
v -0.106241 1.782027 0.165734
v -0.106241 1.782027 0.165734
v 0.170921 1.782027 -0.165734
v -0.106241 1.782027 0.258041
v -0.022006 1.782027 -0.258041
v 0.086627 1.782027 -0.136758
v -0.022006 1.782027 -0.165734
v -0.022006 1.782027 -0.165734
v -0.022006 1.782027 0.258041
v 0.068470 1.782027 -0.258041
v 0.086627 1.782027 0.136758
v -0.022006 1.782027 0.165734
v -0.022006 1.782027 0.165734
v 0.139725 1.782027 0.000000
v -0.106241 1.853041 -0.165734
v -0.106241 1.853041 -0.165734
v -0.348432 1.853041 -0.165734
v -0.348432 1.853041 -0.165734
v -0.413393 1.853041 0.259935
v -0.492015 1.853041 0.165734
v -0.106241 1.853041 -0.258041
v -0.413393 1.853041 -0.259935
v -0.492015 1.853041 -0.165734
v -0.525880 1.853041 0.000000
v 0.170921 1.853041 0.165734
v 0.243313 1.853041 0.000000
v -0.348432 1.853041 0.165734
v -0.348432 1.853041 0.165734
v -0.382297 1.853041 0.000000
v 0.076983 1.853041 0.258041
v -0.106241 1.853041 0.165734
v -0.106241 1.853041 0.165734
v 0.170921 1.853041 -0.165734
v -0.106241 1.853041 0.258041
v -0.022006 1.853041 -0.258041
v 0.086627 1.853041 -0.136758
v -0.022006 1.853041 -0.165734
v -0.022006 1.853041 -0.165734
v -0.022006 1.853041 0.258041
v 0.068470 1.853041 -0.258041
v 0.086627 1.853041 0.136758
v -0.022006 1.853041 0.165734
v -0.022006 1.853041 0.165734
v 0.139725 1.853041 0.000000
v 0.009697 1.867047 -1.080676
v 0.776675 1.867047 -0.751485
v 0.776675 -1.867047 -0.751485
v 0.009697 -1.867047 -1.080676
v -0.776675 -1.867047 0.751485
v -0.009697 -1.867047 1.080676
v -0.009697 1.867047 1.080676
v -0.776675 1.867047 0.751485
v 1.080676 1.867047 0.009697
v 0.751485 1.867047 0.776675
v 0.751485 -1.867047 0.776675
v 1.080676 -1.867047 0.009697
v -1.080676 1.867047 -0.009697
v -0.751485 1.867047 -0.776675
v -0.751485 -1.867047 -0.776675
v -1.080676 -1.867047 -0.009697
v 0.632646 -2.098362 -0.612127
v 0.007899 -2.098362 -0.880272
v -0.632646 -2.098362 0.612127
v -0.007899 -2.098362 0.880272
v 0.612127 -2.098362 0.632646
v 0.880272 -2.098362 0.007899
v -0.612127 -2.098362 -0.632646
v -0.880272 -2.098362 -0.007899
v 0.007928 1.867047 -0.941724
v 0.677171 1.867047 -0.654482
v -0.007928 1.867047 0.941724
v -0.677171 1.867047 0.654482
v 0.941724 1.867047 0.007928
v 0.654482 1.867047 0.677171
v -0.941724 1.867047 -0.007928
v -0.654482 1.867047 -0.677171
v 0.006793 1.790083 -0.806903
v 0.580224 1.790083 -0.560784
v -0.006793 1.790083 0.806903
v -0.580224 1.790083 0.560784
v 0.806903 1.790083 0.006793
v 0.560784 1.790083 0.580224
v -0.806903 1.790083 -0.006793
v -0.560784 1.790083 -0.580224
vn -0.0000 -1.0000 -0.0000
vn -0.0000 1.0000 -0.0000
vn -0.0000 -0.0000 1.0000
vn -0.7677 -0.0000 -0.6408
vn 1.0000 -0.0000 -0.0000
vn -0.9798 -0.0000 0.2002
vn -1.0000 -0.0000 -0.0000
vn -0.9322 -0.0000 -0.3619
vn -0.7677 -0.0000 0.6408
vn 0.7009 -0.0000 0.7133
vn -0.2577 -0.0000 0.9662
vn 0.0062 -0.0000 -1.0000
vn 0.0062 -0.0000 1.0000
vn 0.6694 -0.0000 -0.7429
vn -0.0000 -0.0000 -1.0000
vn -0.9798 -0.0000 -0.2002
vn 0.9164 -0.0000 0.4003
vn 0.9164 -0.0000 -0.4003
vn -0.2577 -0.0000 -0.9662
vn 0.9798 -0.0000 -0.2002
vn -0.9322 -0.0000 0.3619
vn 0.9798 -0.0000 0.2002
vn -0.4957 0.8685 -0.0060
vn -0.3552 0.8685 0.3458
vn -0.3545 0.8685 0.3465
vn -0.4957 0.8685 -0.0070
vn -0.7160 -0.0000 0.6981
vn -0.9999 -0.0000 -0.0127
vn 0.6980 -0.0000 0.7160
vn -0.0127 -0.0000 0.9999
vn 0.7160 -0.0000 -0.6981
vn 0.9999 -0.0000 0.0127
vn 0.0127 -0.0000 -0.9999
vn -0.6981 -0.0000 -0.7160
vn 0.5414 -0.6548 -0.5273
vn 0.7557 -0.6548 0.0093
vn 0.7557 -0.6548 0.0102
vn 0.5408 -0.6548 -0.5280
vn -0.5273 -0.6548 -0.5414
vn 0.0093 -0.6548 -0.7557
vn 0.0102 -0.6548 -0.7557
vn -0.5280 -0.6548 -0.5408
vn -0.7557 -0.6548 -0.0093
vn -0.7557 -0.6548 -0.0102
vn 0.5273 -0.6548 0.5414
vn -0.0093 -0.6548 0.7557
vn -0.0102 -0.6548 0.7557
vn 0.5280 -0.6548 0.5408
vn -0.5414 -0.6548 0.5273
vn -0.5408 -0.6548 0.5280
vn 0.3458 0.8685 0.3552
vn 0.4957 0.8685 0.0060
vn 0.4957 0.8685 0.0070
vn 0.3465 0.8685 0.3545
vn 0.3552 0.8685 -0.3458
vn 0.0060 0.8685 -0.4957
vn 0.0070 0.8685 -0.4957
vn 0.3545 0.8685 -0.3465
vn -0.0060 0.8685 0.4957
vn -0.0070 0.8685 0.4957
vn -0.3458 0.8685 -0.3552
vn -0.3465 0.8685 -0.3545
vt 0.916960 1.000000
vt 1.000000 0.750000
vt 0.916960 0.750000
vt 0.216586 1.000000
vt 0.216586 0.750000
vt 0.000000 0.750000
vt 0.000000 0.250000
vt 0.000000 0.500000
vt 0.216586 0.500000
vt 0.216586 0.250000
vt 0.916960 0.250000
vt 0.916960 0.500000
vt 1.000000 0.500000
vt 1.000000 0.250000
vt 0.916960 0.000000
vt 0.216586 0.000000
vt 0.581918 0.250000
vt 0.581918 0.000000
vt 0.581918 1.000000
vt 0.581918 0.750000
vt 0.708982 0.250000
vt 0.708982 0.000000
vt 0.581918 0.500000
vt 0.708982 0.500000
vt 0.708982 1.000000
vt 0.708982 0.750000
vt 0.625000 0.652701
vt 0.625000 0.556060
vt 0.375000 0.073772
vt 0.625000 0.073772
vt 0.625000 0.176228
vt 0.375000 0.176228
vt 0.375000 0.823772
vt 0.625000 0.823772
vt 0.625000 0.926228
vt 0.375000 0.926228
vt 0.375000 0.573772
vt 0.625000 0.573772
vt 0.625000 0.676228
vt 0.375000 0.676228
vt 0.375000 0.426228
vt 0.625000 0.426228
vt 0.375000 0.000000
vt 0.625000 0.000000
vt 0.625000 0.323772
vt 0.375000 0.323772
vt 0.625000 0.426296
vt 0.625000 0.099498
vt 0.625000 0.104361
vt 0.625000 0.714035
vt 0.625000 0.195714
vt 0.625000 0.325106
s 0
usemtl Material
f 114/1/1 107/2/1 110/3/1
f 96/4/1 91/5/1 97/6/1
f 94/7/1 98/8/1 103/9/1 101/10/1
f 115/11/1 118/12/1 100/13/1 99/14/1
f 104/15/1 115/11/1 99/14/1
f 94/7/1 101/10/1 93/16/1
f 98/8/1 97/6/1 91/5/1 103/9/1
f 118/12/1 110/3/1 107/2/1 100/13/1
f 93/16/1 101/10/1 105/17/1 108/18/1
f 91/5/1 96/4/1 95/19/1 89/20/1
f 108/18/1 105/17/1 116/21/1 113/22/1
f 105/17/1 89/23/1 111/24/1 116/21/1
f 89/20/1 95/19/1 109/25/1 111/26/1
f 113/22/1 116/21/1 115/11/1 104/15/1
f 111/26/1 109/25/1 114/1/1 110/3/1
f 144/1/2 140/3/2 137/2/2
f 126/4/2 127/6/2 121/5/2
f 124/7/2 131/10/2 133/9/2 128/8/2
f 145/11/2 129/14/2 130/13/2 148/12/2
f 134/15/2 129/14/2 145/11/2
f 124/7/2 123/16/2 131/10/2
f 128/8/2 133/9/2 121/5/2 127/6/2
f 148/12/2 130/13/2 137/2/2 140/3/2
f 123/16/2 138/18/2 135/17/2 131/10/2
f 121/5/2 119/20/2 125/19/2 126/4/2
f 138/18/2 143/22/2 146/21/2 135/17/2
f 135/17/2 146/21/2 141/24/2 119/23/2
f 119/20/2 141/26/2 139/25/2 125/19/2
f 143/22/2 134/15/2 145/11/2 146/21/2
f 141/26/2 140/3/2 144/1/2 139/25/2
f 92/5/3 90/20/3 120/20/3 122/5/3
f 2/4/4 11/6/4 35/6/4 26/4/4
f 117/21/5 112/24/5 142/24/5 147/21/5
f 3/8/6 6/7/6 30/7/6 27/8/6
f 14/23/7 106/17/7 136/17/7 38/23/7
f 22/12/8 23/11/8 47/11/8 46/12/8
f 6/7/9 1/16/9 25/16/9 30/7/9
f 16/22/3 20/15/3 44/15/3 40/22/3
f 20/15/10 7/14/10 31/14/10 44/15/10
f 18/26/11 24/3/11 48/3/11 42/26/11
f 13/19/12 2/4/12 26/4/12 37/19/12
f 1/16/13 12/18/13 36/18/13 25/16/13
f 9/2/14 21/1/14 45/1/14 33/2/14
f 12/18/3 16/22/3 40/22/3 36/18/3
f 17/25/15 13/19/15 37/19/15 41/25/15
f 15/17/15 102/10/15 132/10/15 39/17/15
f 21/1/15 17/25/15 41/25/15 45/1/15
f 11/6/16 3/8/16 27/8/16 35/6/16
f 7/14/17 4/13/17 28/13/17 31/14/17
f 4/13/18 9/2/18 33/2/18 28/13/18
f 23/11/19 19/21/19 43/21/19 47/11/19
f 8/10/20 5/9/20 29/9/20 32/10/20
f 24/3/21 22/12/21 46/12/21 48/3/21
f 5/9/22 10/5/22 34/5/22 29/9/22
s 1
f 54/27/23 49/28/24 82/28/25 85/27/26
f 52/37/35 55/40/36 70/40/37 65/37/38
f 165/37/1 170/40/1 169/33/1 168/36/1 167/29/1 172/32/1 171/46/1 166/41/1
f 60/46/39 51/41/40 66/41/41 71/46/42
f 59/32/43 60/46/39 71/46/42 72/32/44
f 56/33/45 63/36/46 68/36/47 69/33/48
f 55/40/36 56/33/45 69/33/48 70/40/37
f 63/43/46 64/29/49 67/29/50 68/43/47
f 51/41/40 52/37/35 65/37/38 66/41/41
f 64/29/49 59/32/43 72/32/44 67/29/50
f 173/47/2 174/28/2 74/38/2 73/42/2
f 175/48/2 176/49/2 76/30/2 75/44/2
f 177/27/2 178/50/2 78/34/2 77/39/2
f 179/51/2 180/52/2 80/45/2 79/31/2
f 180/52/2 173/47/2 73/42/2 80/45/2
f 174/28/2 177/27/2 77/39/2 74/38/2
f 176/49/2 179/51/2 79/31/2 76/30/2
f 178/50/2 175/48/2 75/44/2 78/34/2
f 181/47/2 188/52/2 187/51/2 184/49/2 183/48/2 186/50/2 185/27/2 182/28/2
f 57/52/51 58/51/52 87/51/53 88/52/54
f 61/49/55 62/48/56 83/48/57 84/49/58
f 58/51/52 61/49/55 84/49/58 87/51/53
f 50/47/59 57/52/51 88/52/54 81/47/60
f 53/50/61 54/27/23 85/27/26 86/50/62
f 49/28/24 50/47/59 81/47/60 82/28/25
f 62/48/56 53/50/61 86/50/62 83/48/57
usemtl Material.001
f 153/29/27 156/30/27 161/31/28 164/32/28
f 159/33/29 158/34/29 155/35/30 154/36/30
f 151/37/31 150/38/31 157/39/32 160/40/32
f 150/38/31 151/37/31 152/41/33 149/42/33
f 154/43/30 155/44/30 156/30/27 153/29/27
f 158/34/29 159/33/29 160/40/32 157/39/32
f 162/45/34 163/46/34 164/32/28 161/31/28
f 163/46/34 162/45/34 149/42/33 152/41/33
